<svg width="34" height="42" viewBox="0 0 34 42" fill="none" xmlns="http://www.w3.org/2000/svg">
<g opacity="0.8">
<path d="M27.3342 6.08834C30.7265 6.08834 32.611 2.60188 32.988 1V9.90459C32.988 14.0035 30.1611 15.9823 27.3342 15.9823H23.094C19.1364 15.9823 17.4874 19.9399 16.8749 21.9187V14.0035C16.8749 8.68905 20.6911 6.08834 22.8584 6.08834H27.3342Z" stroke="white" stroke-width="1.5" stroke-miterlimit="4.62023"/>
<path d="M6.41551 16.4063C3.02329 16.4063 1.13872 12.9199 0.761805 11.318V20.2226C0.761805 24.3215 3.58866 26.3003 6.41551 26.3003H10.6558C14.6134 26.3003 16.2624 30.2579 16.8749 32.2367V24.3215C16.8749 19.007 13.0586 16.4063 10.8914 16.4063H6.41551Z" stroke="white" stroke-width="1.5" stroke-miterlimit="4.62023"/>
<path d="M27.3342 25.1696C30.7265 25.1696 32.611 21.6831 32.988 20.0812V28.9858C32.988 33.0848 30.1611 35.0636 27.3342 35.0636H23.094C19.1364 35.0636 17.4874 39.0212 16.8749 41V33.0848C16.8749 27.7703 20.6911 25.1696 22.8584 25.1696H27.3342Z" stroke="white" stroke-width="1.5" stroke-miterlimit="4.62023"/>
</g>
</svg>
