<?xml version="1.0" encoding="UTF-8"?>
<svg width="280px" height="96px" viewBox="0 0 280 96" version="1.1" xmlns="http://www.w3.org/2000/svg" xmlns:xlink="http://www.w3.org/1999/xlink">
    <title>Group 4</title>
    <g id="Symbols" stroke="none" stroke-width="1" fill="none" fill-rule="evenodd">
        <g id="Group-4" fill="#FFFFFF">
            <path d="M127.796875,45.46875 C129.6875,45.46875 131.433594,45.2109375 133.035156,44.6953125 C134.636719,44.1796875 136.015625,43.4140625 137.171875,42.3984375 C138.328125,41.3828125 139.234375,40.1210938 139.890625,38.6132812 C140.546875,37.1054688 140.875,35.3671875 140.875,33.3984375 L140.875,33.3984375 L140.875,10.875 L133.820312,10.875 L133.820312,33.3984375 C133.820312,35.6328125 133.292969,37.2617188 132.238281,38.2851562 C131.183594,39.3085938 129.703125,39.8203125 127.796875,39.8203125 C125.90625,39.8203125 124.425781,39.3085938 123.355469,38.2851562 C122.285156,37.2617188 121.75,35.6328125 121.75,33.3984375 L121.75,33.3984375 L121.75,10.875 L114.71875,10.875 L114.71875,33.3984375 C114.71875,35.3671875 115.042969,37.1054688 115.691406,38.6132812 C116.339844,40.1210938 117.242188,41.3828125 118.398438,42.3984375 C119.554688,43.4140625 120.933594,44.1796875 122.535156,44.6953125 C124.136719,45.2109375 125.890625,45.46875 127.796875,45.46875 Z M152.828125,45 L152.828125,27.1171875 C153.265625,26.3671875 153.839844,25.7734375 154.550781,25.3359375 C155.261719,24.8984375 156.117188,24.6796875 157.117188,24.6796875 C157.773438,24.6796875 158.351562,24.7460938 158.851562,24.8789062 C159.351562,25.0117188 159.773438,25.234375 160.117188,25.546875 C160.460938,25.859375 160.722656,26.28125 160.902344,26.8125 C161.082031,27.34375 161.171875,28.015625 161.171875,28.828125 L161.171875,28.828125 L161.171875,45 L167.945312,45 L167.945312,28.875 C167.945312,27.078125 167.753906,25.5625 167.371094,24.328125 C166.988281,23.09375 166.445312,22.09375 165.742188,21.328125 C165.039062,20.5625 164.195312,20.0117188 163.210938,19.6757812 C162.226562,19.3398438 161.132812,19.171875 159.929688,19.171875 C158.414062,19.171875 157.039062,19.4648438 155.804688,20.0507812 C154.570312,20.6367188 153.515625,21.4765625 152.640625,22.5703125 L152.640625,22.5703125 L152.429688,19.640625 L146.054688,19.640625 L146.054688,45 L152.828125,45 Z M176.828125,16.59375 C177.40625,16.59375 177.929688,16.5078125 178.398438,16.3359375 C178.867188,16.1640625 179.265625,15.921875 179.59375,15.609375 C179.921875,15.296875 180.175781,14.9257812 180.355469,14.4960938 C180.535156,14.0664062 180.625,13.59375 180.625,13.078125 C180.625,12.578125 180.535156,12.1132812 180.355469,11.6835938 C180.175781,11.2539062 179.921875,10.8828125 179.59375,10.5703125 C179.265625,10.2578125 178.867188,10.015625 178.398438,9.84375 C177.929688,9.671875 177.40625,9.5859375 176.828125,9.5859375 C175.65625,9.5859375 174.730469,9.9140625 174.050781,10.5703125 C173.371094,11.2265625 173.03125,12.0625 173.03125,13.078125 C173.03125,13.59375 173.121094,14.0664062 173.300781,14.4960938 C173.480469,14.9257812 173.734375,15.296875 174.0625,15.609375 C174.390625,15.921875 174.789062,16.1640625 175.257812,16.3359375 C175.726562,16.5078125 176.25,16.59375 176.828125,16.59375 Z M180.226562,45 L180.226562,19.640625 L173.429688,19.640625 L173.429688,45 L180.226562,45 Z M194.40625,45.46875 C195.25,45.46875 196.003906,45.4101562 196.667969,45.2929688 C197.332031,45.1757812 197.945312,45.03125 198.507812,44.859375 L198.507812,44.859375 L198.507812,39.7265625 C198.257812,39.7734375 197.964844,39.8125 197.628906,39.84375 C197.292969,39.875 196.921875,39.890625 196.515625,39.890625 C196.078125,39.890625 195.699219,39.8554688 195.378906,39.7851562 C195.058594,39.7148438 194.789062,39.5820312 194.570312,39.3867188 C194.351562,39.1914062 194.1875,38.921875 194.078125,38.578125 C193.96875,38.234375 193.914062,37.796875 193.914062,37.265625 L193.914062,37.265625 L193.914062,24.609375 L198.25,24.609375 L198.25,19.640625 L193.914062,19.640625 L193.914062,13.40625 L187.140625,13.40625 L187.140625,19.640625 L183.4375,19.640625 L183.4375,24.609375 L187.140625,24.609375 L187.140625,37.9921875 C187.140625,39.3359375 187.3125,40.484375 187.65625,41.4375 C188,42.390625 188.488281,43.1640625 189.121094,43.7578125 C189.753906,44.3515625 190.515625,44.7851562 191.40625,45.0585938 C192.296875,45.3320312 193.296875,45.46875 194.40625,45.46875 Z M213.695312,45.46875 C214.929688,45.46875 216.066406,45.3398438 217.105469,45.0820312 C218.144531,44.8242188 219.078125,44.4804688 219.90625,44.0507812 C220.734375,43.6210938 221.453125,43.1328125 222.0625,42.5859375 C222.671875,42.0390625 223.179688,41.4765625 223.585938,40.8984375 L223.585938,40.8984375 L220.257812,37.171875 C219.507812,38.140625 218.609375,38.8554688 217.5625,39.3164062 C216.515625,39.7773438 215.375,40.0078125 214.140625,40.0078125 C213.265625,40.0078125 212.476562,39.875 211.773438,39.609375 C211.070312,39.34375 210.457031,38.9726562 209.933594,38.4960938 C209.410156,38.0195312 208.980469,37.4453125 208.644531,36.7734375 C208.308594,36.1015625 208.085938,35.3515625 207.976562,34.5234375 L207.976562,34.5234375 L224.125,34.5234375 L224.125,31.640625 C224.125,29.765625 223.886719,28.0625 223.410156,26.53125 C222.933594,25 222.222656,23.6914062 221.277344,22.6054688 C220.332031,21.5195312 219.164062,20.6757812 217.773438,20.0742188 C216.382812,19.4726562 214.773438,19.171875 212.945312,19.171875 C211.132812,19.171875 209.496094,19.4960938 208.035156,20.1445312 C206.574219,20.7929688 205.332031,21.6953125 204.308594,22.8515625 C203.285156,24.0078125 202.496094,25.3867188 201.941406,26.9882812 C201.386719,28.5898438 201.109375,30.3515625 201.109375,32.2734375 L201.109375,32.2734375 L201.109375,33.1875 C201.109375,34.890625 201.394531,36.4882812 201.964844,37.9804688 C202.535156,39.4726562 203.363281,40.7734375 204.449219,41.8828125 C205.535156,42.9921875 206.855469,43.8671875 208.410156,44.5078125 C209.964844,45.1484375 211.726562,45.46875 213.695312,45.46875 Z M217.46875,29.90625 L208.046875,29.90625 C208.15625,29.125 208.335938,28.4140625 208.585938,27.7734375 C208.835938,27.1328125 209.160156,26.5820312 209.558594,26.1210938 C209.957031,25.6601562 210.433594,25.3007812 210.988281,25.0429688 C211.542969,24.7851562 212.1875,24.65625 212.921875,24.65625 C213.703125,24.65625 214.378906,24.7734375 214.949219,25.0078125 C215.519531,25.2421875 215.988281,25.5703125 216.355469,25.9921875 C216.722656,26.4140625 216.996094,26.9140625 217.175781,27.4921875 C217.355469,28.0703125 217.453125,28.6953125 217.46875,29.3671875 L217.46875,29.3671875 L217.46875,29.90625 Z M236.804688,45.46875 C238.226562,45.46875 239.46875,45.1914062 240.53125,44.6367188 C241.59375,44.0820312 242.523438,43.3046875 243.320312,42.3046875 L243.320312,42.3046875 L243.648438,45 L249.765625,45 L249.765625,9 L242.96875,9 L242.96875,21.9375 C242.203125,21.0625 241.316406,20.3828125 240.308594,19.8984375 C239.300781,19.4140625 238.148438,19.171875 236.851562,19.171875 C235.273438,19.171875 233.867188,19.484375 232.632812,20.109375 C231.398438,20.734375 230.359375,21.6171875 229.515625,22.7578125 C228.671875,23.8984375 228.027344,25.265625 227.582031,26.859375 C227.136719,28.453125 226.914062,30.2109375 226.914062,32.1328125 L226.914062,32.1328125 L226.914062,32.625 C226.914062,34.46875 227.136719,36.1757812 227.582031,37.7460938 C228.027344,39.3164062 228.671875,40.671875 229.515625,41.8125 C230.359375,42.953125 231.394531,43.8476562 232.621094,44.4960938 C233.847656,45.1445312 235.242188,45.46875 236.804688,45.46875 Z M238.539062,39.984375 C237.648438,39.984375 236.894531,39.7929688 236.277344,39.4101562 C235.660156,39.0273438 235.160156,38.5039062 234.777344,37.8398438 C234.394531,37.1757812 234.117188,36.3984375 233.945312,35.5078125 C233.773438,34.6171875 233.6875,33.65625 233.6875,32.625 L233.6875,32.625 L233.6875,32.1328125 C233.6875,31.0859375 233.777344,30.109375 233.957031,29.203125 C234.136719,28.296875 234.417969,27.5078125 234.800781,26.8359375 C235.183594,26.1640625 235.6875,25.6367188 236.3125,25.2539062 C236.9375,24.8710938 237.695312,24.6796875 238.585938,24.6796875 C239.648438,24.6796875 240.542969,24.9101562 241.269531,25.3710938 C241.996094,25.8320312 242.5625,26.484375 242.96875,27.328125 L242.96875,27.328125 L242.96875,37.3359375 C242.5625,38.1640625 241.996094,38.8125 241.269531,39.28125 C240.542969,39.75 239.632812,39.984375 238.539062,39.984375 Z M122.078125,85 L122.078125,62.546875 L135.765625,85 L142.796875,85 L142.796875,50.875 L135.789062,50.875 L135.789062,73.375 L122.078125,50.875 L115.046875,50.875 L115.046875,85 L122.078125,85 Z M156.109375,85.46875 C157.609375,85.46875 158.878906,85.203125 159.917969,84.671875 C160.957031,84.140625 161.820312,83.4921875 162.507812,82.7265625 C162.648438,83.6328125 162.875,84.390625 163.1875,85 L163.1875,85 L170.03125,85 L170.03125,84.6015625 C169.859375,84.2734375 169.710938,83.9257812 169.585938,83.5585938 C169.460938,83.1914062 169.359375,82.7773438 169.28125,82.3164062 C169.203125,81.8554688 169.140625,81.3398438 169.09375,80.7695312 C169.046875,80.1992188 169.023438,79.5546875 169.023438,78.8359375 L169.023438,78.8359375 L169.023438,68.1015625 C169.023438,66.6171875 168.769531,65.3164062 168.261719,64.1992188 C167.753906,63.0820312 167.046875,62.1523438 166.140625,61.4101562 C165.234375,60.6679688 164.15625,60.109375 162.90625,59.734375 C161.65625,59.359375 160.296875,59.171875 158.828125,59.171875 C157.1875,59.171875 155.703125,59.3867188 154.375,59.8164062 C153.046875,60.2460938 151.914062,60.828125 150.976562,61.5625 C150.039062,62.296875 149.316406,63.15625 148.808594,64.140625 C148.300781,65.125 148.046875,66.1640625 148.046875,67.2578125 L148.046875,67.2578125 L154.820312,67.2578125 C154.820312,66.3046875 155.144531,65.5546875 155.792969,65.0078125 C156.441406,64.4609375 157.335938,64.1875 158.476562,64.1875 C159.773438,64.1875 160.722656,64.5390625 161.324219,65.2421875 C161.925781,65.9453125 162.226562,66.8828125 162.226562,68.0546875 L162.226562,68.0546875 L162.226562,69.5078125 L159.203125,69.5078125 C157.265625,69.5078125 155.566406,69.6953125 154.105469,70.0703125 C152.644531,70.4453125 151.421875,70.9921875 150.4375,71.7109375 C149.453125,72.4296875 148.714844,73.3046875 148.222656,74.3359375 C147.730469,75.3671875 147.484375,76.546875 147.484375,77.875 C147.484375,78.984375 147.703125,80.0039062 148.140625,80.9335938 C148.578125,81.8632812 149.183594,82.6640625 149.957031,83.3359375 C150.730469,84.0078125 151.644531,84.53125 152.699219,84.90625 C153.753906,85.28125 154.890625,85.46875 156.109375,85.46875 Z M157.585938,80.2890625 C156.554688,80.2890625 155.742188,80.015625 155.148438,79.46875 C154.554688,78.921875 154.257812,78.2265625 154.257812,77.3828125 C154.257812,76.8203125 154.359375,76.3007812 154.5625,75.8242188 C154.765625,75.3476562 155.078125,74.9335938 155.5,74.5820312 C155.921875,74.2304688 156.460938,73.9570312 157.117188,73.7617188 C157.773438,73.5664062 158.546875,73.46875 159.4375,73.46875 L159.4375,73.46875 L162.226562,73.46875 L162.226562,77.828125 C162.054688,78.140625 161.824219,78.4453125 161.535156,78.7421875 C161.246094,79.0390625 160.90625,79.3007812 160.515625,79.5273438 C160.125,79.7539062 159.683594,79.9375 159.191406,80.078125 C158.699219,80.21875 158.164062,80.2890625 157.585938,80.2890625 Z M182.828125,85.46875 C183.671875,85.46875 184.425781,85.4101562 185.089844,85.2929688 C185.753906,85.1757812 186.367188,85.03125 186.929688,84.859375 L186.929688,84.859375 L186.929688,79.7265625 C186.679688,79.7734375 186.386719,79.8125 186.050781,79.84375 C185.714844,79.875 185.34375,79.890625 184.9375,79.890625 C184.5,79.890625 184.121094,79.8554688 183.800781,79.7851562 C183.480469,79.7148438 183.210938,79.5820312 182.992188,79.3867188 C182.773438,79.1914062 182.609375,78.921875 182.5,78.578125 C182.390625,78.234375 182.335938,77.796875 182.335938,77.265625 L182.335938,77.265625 L182.335938,64.609375 L186.671875,64.609375 L186.671875,59.640625 L182.335938,59.640625 L182.335938,53.40625 L175.5625,53.40625 L175.5625,59.640625 L171.859375,59.640625 L171.859375,64.609375 L175.5625,64.609375 L175.5625,77.9921875 C175.5625,79.3359375 175.734375,80.484375 176.078125,81.4375 C176.421875,82.390625 176.910156,83.1640625 177.542969,83.7578125 C178.175781,84.3515625 178.9375,84.7851562 179.828125,85.0585938 C180.71875,85.3320312 181.71875,85.46875 182.828125,85.46875 Z M194.195312,56.59375 C194.773438,56.59375 195.296875,56.5078125 195.765625,56.3359375 C196.234375,56.1640625 196.632812,55.921875 196.960938,55.609375 C197.289062,55.296875 197.542969,54.9257812 197.722656,54.4960938 C197.902344,54.0664062 197.992188,53.59375 197.992188,53.078125 C197.992188,52.578125 197.902344,52.1132812 197.722656,51.6835938 C197.542969,51.2539062 197.289062,50.8828125 196.960938,50.5703125 C196.632812,50.2578125 196.234375,50.015625 195.765625,49.84375 C195.296875,49.671875 194.773438,49.5859375 194.195312,49.5859375 C193.023438,49.5859375 192.097656,49.9140625 191.417969,50.5703125 C190.738281,51.2265625 190.398438,52.0625 190.398438,53.078125 C190.398438,53.59375 190.488281,54.0664062 190.667969,54.4960938 C190.847656,54.9257812 191.101562,55.296875 191.429688,55.609375 C191.757812,55.921875 192.15625,56.1640625 192.625,56.3359375 C193.09375,56.5078125 193.617188,56.59375 194.195312,56.59375 Z M197.59375,85 L197.59375,59.640625 L190.796875,59.640625 L190.796875,85 L197.59375,85 Z M214.140625,85.46875 C216.0625,85.46875 217.765625,85.1445312 219.25,84.4960938 C220.734375,83.8476562 221.988281,82.9492188 223.011719,81.8007812 C224.035156,80.6523438 224.8125,79.2929688 225.34375,77.7226562 C225.875,76.1523438 226.140625,74.4375 226.140625,72.578125 L226.140625,72.578125 L226.140625,72.0859375 C226.140625,70.2421875 225.875,68.53125 225.34375,66.953125 C224.8125,65.375 224.035156,64.0117188 223.011719,62.8632812 C221.988281,61.7148438 220.726562,60.8125 219.226562,60.15625 C217.726562,59.5 216.015625,59.171875 214.09375,59.171875 C212.1875,59.171875 210.488281,59.5 208.996094,60.15625 C207.503906,60.8125 206.25,61.7148438 205.234375,62.8632812 C204.21875,64.0117188 203.445312,65.375 202.914062,66.953125 C202.382812,68.53125 202.117188,70.2421875 202.117188,72.0859375 L202.117188,72.0859375 L202.117188,72.578125 C202.117188,74.4375 202.382812,76.1523438 202.914062,77.7226562 C203.445312,79.2929688 204.222656,80.6523438 205.246094,81.8007812 C206.269531,82.9492188 207.527344,83.8476562 209.019531,84.4960938 C210.511719,85.1445312 212.21875,85.46875 214.140625,85.46875 Z M214.140625,80.0078125 C213.171875,80.0078125 212.355469,79.8125 211.691406,79.421875 C211.027344,79.03125 210.488281,78.5039062 210.074219,77.8398438 C209.660156,77.1757812 209.359375,76.390625 209.171875,75.484375 C208.984375,74.578125 208.890625,73.609375 208.890625,72.578125 L208.890625,72.578125 L208.890625,72.0859375 C208.890625,71.0859375 208.984375,70.1367188 209.171875,69.2382812 C209.359375,68.3398438 209.660156,67.5507812 210.074219,66.8710938 C210.488281,66.1914062 211.027344,65.6523438 211.691406,65.2539062 C212.355469,64.8554688 213.15625,64.65625 214.09375,64.65625 C215.046875,64.65625 215.859375,64.8554688 216.53125,65.2539062 C217.203125,65.6523438 217.75,66.1914062 218.171875,66.8710938 C218.59375,67.5507812 218.898438,68.3398438 219.085938,69.2382812 C219.273438,70.1367188 219.367188,71.0859375 219.367188,72.0859375 L219.367188,72.0859375 L219.367188,72.578125 C219.367188,73.609375 219.273438,74.578125 219.085938,75.484375 C218.898438,76.390625 218.59375,77.1757812 218.171875,77.8398438 C217.75,78.5039062 217.207031,79.03125 216.542969,79.421875 C215.878906,79.8125 215.078125,80.0078125 214.140625,80.0078125 Z M236.945312,85 L236.945312,67.1171875 C237.382812,66.3671875 237.957031,65.7734375 238.667969,65.3359375 C239.378906,64.8984375 240.234375,64.6796875 241.234375,64.6796875 C241.890625,64.6796875 242.46875,64.7460938 242.96875,64.8789062 C243.46875,65.0117188 243.890625,65.234375 244.234375,65.546875 C244.578125,65.859375 244.839844,66.28125 245.019531,66.8125 C245.199219,67.34375 245.289062,68.015625 245.289062,68.828125 L245.289062,68.828125 L245.289062,85 L252.0625,85 L252.0625,68.875 C252.0625,67.078125 251.871094,65.5625 251.488281,64.328125 C251.105469,63.09375 250.5625,62.09375 249.859375,61.328125 C249.15625,60.5625 248.3125,60.0117188 247.328125,59.6757812 C246.34375,59.3398438 245.25,59.171875 244.046875,59.171875 C242.53125,59.171875 241.15625,59.4648438 239.921875,60.0507812 C238.6875,60.6367188 237.632812,61.4765625 236.757812,62.5703125 L236.757812,62.5703125 L236.546875,59.640625 L230.171875,59.640625 L230.171875,85 L236.945312,85 Z M266.851562,85.46875 C268.476562,85.46875 269.945312,85.2734375 271.257812,84.8828125 C272.570312,84.4921875 273.691406,83.953125 274.621094,83.265625 C275.550781,82.578125 276.265625,81.7617188 276.765625,80.8164062 C277.265625,79.8710938 277.515625,78.8359375 277.515625,77.7109375 C277.515625,76.4609375 277.273438,75.3945312 276.789062,74.5117188 C276.304688,73.6289062 275.636719,72.8789062 274.785156,72.2617188 C273.933594,71.6445312 272.921875,71.140625 271.75,70.75 C270.578125,70.359375 269.304688,70.03125 267.929688,69.765625 C267.054688,69.59375 266.316406,69.40625 265.714844,69.203125 C265.113281,69 264.628906,68.7773438 264.261719,68.5351562 C263.894531,68.2929688 263.628906,68.0273438 263.464844,67.7382812 C263.300781,67.4492188 263.21875,67.1171875 263.21875,66.7421875 C263.21875,65.9453125 263.53125,65.2890625 264.15625,64.7734375 C264.78125,64.2578125 265.664062,64 266.804688,64 C268.132812,64 269.109375,64.3164062 269.734375,64.9492188 C270.359375,65.5820312 270.671875,66.3828125 270.671875,67.3515625 L270.671875,67.3515625 L277.445312,67.3515625 C277.445312,66.1640625 277.199219,65.0703125 276.707031,64.0703125 C276.214844,63.0703125 275.511719,62.2070312 274.597656,61.4804688 C273.683594,60.7539062 272.570312,60.1875 271.257812,59.78125 C269.945312,59.375 268.46875,59.171875 266.828125,59.171875 C265.25,59.171875 263.832031,59.3828125 262.574219,59.8046875 C261.316406,60.2265625 260.253906,60.8007812 259.386719,61.5273438 C258.519531,62.2539062 257.855469,63.09375 257.394531,64.046875 C256.933594,65 256.703125,66.0078125 256.703125,67.0703125 C256.703125,68.1640625 256.929688,69.125 257.382812,69.953125 C257.835938,70.78125 258.464844,71.5078125 259.269531,72.1328125 C260.074219,72.7578125 261.027344,73.28125 262.128906,73.703125 C263.230469,74.125 264.429688,74.4765625 265.726562,74.7578125 C266.789062,74.9765625 267.65625,75.203125 268.328125,75.4375 C269,75.671875 269.53125,75.9179688 269.921875,76.1757812 C270.3125,76.4335938 270.578125,76.7109375 270.71875,77.0078125 C270.859375,77.3046875 270.929688,77.6328125 270.929688,77.9921875 C270.929688,78.7890625 270.597656,79.4335938 269.933594,79.9257812 C269.269531,80.4179688 268.289062,80.6640625 266.992188,80.6640625 C266.382812,80.6640625 265.800781,80.59375 265.246094,80.453125 C264.691406,80.3125 264.203125,80.09375 263.78125,79.796875 C263.359375,79.5 263.019531,79.1132812 262.761719,78.6367188 C262.503906,78.1601562 262.359375,77.59375 262.328125,76.9375 L262.328125,76.9375 L255.90625,76.9375 C255.90625,77.96875 256.140625,78.9921875 256.609375,80.0078125 C257.078125,81.0234375 257.777344,81.9375 258.707031,82.75 C259.636719,83.5625 260.78125,84.21875 262.140625,84.71875 C263.5,85.21875 265.070312,85.46875 266.851562,85.46875 Z" id="UnitedNations" fill-rule="nonzero"></path>
            <g id="Fill-4658-Copy">
                <path d="M15.9922554,40.738585 L21.1117386,40.738585 C21.2908118,33.8601684 24.0689557,27.6143654 28.4922294,22.9517697 L24.8572122,19.3167525 C19.29423,25.1274245 16.1679814,32.6836412 15.9922554,40.738585 L15.9922554,40.738585 Z M25.8697285,18.3059097 L29.5047457,21.9392534 C34.169015,17.5143061 40.4131444,14.7378358 47.291561,14.557089 L47.291561,9.43927937 C39.2382908,9.61333176 31.6820741,12.741254 25.8697285,18.3059097 L25.8697285,18.3059097 Z M48.0078535,35.6207753 C47.407038,35.6207753 46.8263056,35.7111486 46.2673296,35.885201 C46.1936921,35.9655329 46.1367903,36.0324761 46.1803034,36.092725 C46.3208842,36.2985755 46.7493208,35.8667916 46.8062226,36.2634303 C46.8480621,36.5529597 46.3309257,36.340415 46.3777859,36.5529597 C46.4162783,36.7219914 46.7744246,36.651701 46.784466,36.8843287 C46.7911604,37.1002206 46.5669006,37.5202893 46.3945217,37.6307457 C46.1635676,37.7780208 44.936833,37.9403581 44.8196823,38.2265404 C44.7159203,38.4759039 44.6088112,38.6984901 44.418023,38.9043406 C44.2088254,39.1235796 43.22476,39.7076593 43.2214128,39.8599551 C43.2163921,40.219775 43.6950361,39.7612139 43.827249,39.6206331 C44.0381202,39.3980468 44.3293232,39.3997204 44.6456299,39.2173001 C45.0807609,38.9696102 45.248119,39.8381986 44.78119,39.8699966 C44.4899869,39.8900796 44.2439706,40.7084605 43.7870831,40.5511439 C43.671606,40.510978 43.3469314,40.3101483 43.276641,40.5176723 C43.2013298,40.738585 43.9561147,40.7737302 44.1920896,40.9293732 C44.7945786,41.3276854 43.7352021,41.2992345 43.5661704,41.4080172 C43.3988124,41.5151264 43.4808178,41.7460805 43.7100984,41.65236 C43.931011,41.5603131 44.2322555,41.3293589 44.3694891,41.7059146 C44.5552566,42.2130095 43.5326988,44.0673369 43.2348014,43.8732015 C43.0741377,43.7660924 42.9051061,43.9167146 42.7544838,43.9819843 C42.9569871,44.4037266 43.2130449,44.7953445 43.5075951,45.1534908 C43.7084248,44.8204482 44.0247315,44.3518456 44.1602916,44.3484985 C44.3494062,44.3434777 44.2858101,44.1928555 44.3577741,44.058969 C44.4448003,43.8966317 44.6707337,44.0673369 44.6874695,43.8464243 C44.7025317,43.6255116 45.2648548,43.3092049 45.3301244,42.9862038 C45.3635961,42.8104778 45.1560721,42.638099 45.2414247,42.4941711 C45.3468602,42.3184451 45.423845,42.2916678 45.5359749,42.2531755 C45.6481048,42.2146831 45.9158777,42.4807824 45.9978831,42.3653054 C46.078215,42.2498283 46.4765272,42.3385281 46.7811189,42.5309899 C46.9183525,42.618016 47.187799,42.5176012 47.3534835,42.7519025 C47.582764,43.0749036 47.3417684,43.1033544 47.3836079,43.1753184 C47.4237739,43.2456088 47.5241887,43.1351525 47.5844376,43.1937278 C47.7133033,43.3192463 46.9869693,43.7426623 47.0706483,43.9736164 C47.1509802,44.2045705 46.4547706,45.344279 46.2639825,45.5250257 C46.0012303,45.7643477 45.5677729,45.4965748 45.3970677,45.5467822 C45.2129738,45.5986632 45.176155,45.7559798 44.8933199,45.687363 C44.6740808,45.635482 44.4113287,45.7225082 44.1686595,45.8379852 C45.1945644,46.7383716 46.5384497,47.2873061 48.0078535,47.2873061 C48.3241602,47.2873061 48.6337727,47.2571817 48.9350172,47.2086478 C49.1241318,46.9659786 49.2011165,46.6680813 49.2412825,46.3634896 C49.2647126,46.1978051 49.2362617,45.9835868 49.3232879,45.8363117 C49.398599,45.7107931 49.8738959,45.1250399 50.0646841,45.1334078 C50.2303686,45.1401021 50.3441721,45.2857036 50.5851677,45.2120661 C51.0504232,45.064791 51.338279,45.1886359 51.3432998,45.3894656 C51.3499941,45.6706272 50.7575465,45.5902953 50.7809767,45.7476119 C50.7977125,45.8580682 51.2278227,46.0254263 51.3684035,45.863089 C51.6328292,45.5668652 51.5926633,45.1769209 51.5240465,45.0915683 C51.338279,44.8555934 51.3499941,44.7585257 51.617767,44.8505727 C51.7834515,44.9074744 51.7817779,44.2547779 51.9390945,44.0037408 C52.1533128,43.6673511 51.5424559,43.903326 51.2880716,43.9401448 C51.047076,43.9736164 50.8495935,43.4598271 50.8428991,43.280754 C50.8378784,43.1502147 51.2981131,43.7393151 51.5307408,43.7510302 C51.793493,43.7644188 52.104779,43.4598271 52.1081633,43.2355673 C52.1131469,43.0129811 51.6077255,42.9828566 51.5307408,42.710063 C51.4872277,42.5627879 51.9407681,42.710063 51.9072965,42.5627879 C51.877172,42.4339222 51.9524831,42.1259833 51.6663008,42.0021384 C51.3817921,41.879967 51.1207135,40.9678655 50.8931066,40.9042694 C50.6906033,40.8507149 50.5215717,41.1235085 50.3977267,41.2255969 C50.2738817,41.3243382 50.0780728,41.1519594 50.1801612,41.0565653 C50.3274363,40.9210053 50.6671732,40.6281286 50.7374636,40.3971745 C50.8562878,40.0105774 51.3533413,40.4172575 51.2646415,39.8783645 C51.1692474,39.2942848 50.6705203,39.4064148 50.9014745,39.1252532 C51.1391229,38.8390709 50.9617234,38.3738155 50.4814057,38.4658624 C50.2588195,38.5077019 50.0245182,38.1462085 50.0010881,37.8332489 C49.9876994,37.6608701 49.4939931,37.689321 49.5124025,37.5069007 C49.5525685,37.1336922 48.9935925,37.0951999 48.6538556,37.1203036 C48.3124452,37.1454073 47.6530544,36.6199029 47.5794169,36.4910372 C47.5074529,36.3621715 47.0338296,36.6065143 47.1894726,36.1061137 C47.343442,35.6124074 47.810371,36.1948135 48.0078535,36.0525591 C48.2187247,35.9002633 48.153455,35.7446203 48.1199834,35.625796 C48.0814911,35.6241225 48.0446723,35.6207753 48.0078535,35.6207753 L48.0078535,35.6207753 Z M48.7224724,34.2266826 C49.2094844,34.2752164 49.6881285,34.3739577 50.1567311,34.5178856 C50.2772289,34.2199883 50.5818206,34.0710396 50.8328577,33.9003344 C51.1290814,33.6995047 51.3432998,33.4735713 51.3014603,34.0191586 C51.2612943,34.4040821 51.1023042,34.6367099 50.9031481,34.7923529 C51.4052223,35.0115919 51.8821927,35.2843856 52.3256916,35.6124074 C52.4227593,35.6843714 52.5181534,35.7613561 52.6118739,35.8383408 L53.1039066,35.3463081 C53.0988859,35.3295723 53.0938651,35.3128364 53.0938651,35.2910799 C53.1039066,35.0115919 53.5072396,34.680223 53.9758422,34.4760461 L55.5707645,32.8777766 C55.5356193,32.8710823 55.497127,32.8643879 55.4502667,32.8576936 C55.2360484,32.8309163 54.9314567,33.2760888 54.7222591,33.1539174 C54.4862843,33.0150102 55.4268366,32.1865878 55.8469053,32.3455779 C55.9054807,32.3673345 55.9674031,32.3924382 56.0326728,32.4175419 L56.2351761,32.2150386 C54.2134906,30.4109187 51.597684,29.2611688 48.7224724,29.0954843 L48.7224724,34.2266826 Z M48.7224724,27.6628992 C51.9909755,27.8302573 54.9649283,29.140671 57.2493659,31.2008488 L60.8693209,27.5808938 C57.6526989,24.5968995 53.4034776,22.7157948 48.7224724,22.5417424 L48.7224724,27.6628992 Z M48.7224724,21.1091573 C53.0670879,21.2614532 57.0669456,22.782738 60.3120186,25.2512695 C59.9438308,24.7659311 59.5739695,24.2655305 59.4015907,24.0814366 C59.0886311,23.7467205 57.9121039,23.3350196 58.0309281,23.1442314 C58.1480788,22.9517697 59.1940667,23.7868864 59.376487,23.6396113 C59.5973996,23.4638853 58.8526562,22.5049236 58.9078844,22.4681048 C58.9848691,22.4178974 59.8685197,23.2714236 60.3003035,24.0345763 C60.4827238,24.3040228 60.9630414,24.1684628 61.3362499,24.4278678 C61.6659453,24.6604955 61.6893754,25.0286833 61.9655162,25.2680053 C62.0107029,25.3064977 62.5981297,25.6445609 62.2567193,25.6060686 C62.157978,25.5943535 62.0073558,25.3851559 61.8935523,25.4922651 C61.8232619,25.5592083 61.9370654,25.9190282 62.1395686,26.3123196 L63.8399266,24.6102881 C63.5922367,24.1098875 63.1052247,23.4488231 62.7654878,23.3651441 C62.4140359,23.2797915 62.1998175,23.5743417 61.9571483,23.7751713 C61.7161527,23.9743274 61.4149082,24.0412707 61.3780894,23.9073842 C61.3345763,23.7550884 61.4266233,23.3835535 61.4082139,23.2262369 C61.3847838,23.0304279 61.2308143,22.8781321 61.1789333,22.6890175 C61.0567619,22.243845 61.2391822,21.7484652 60.9680622,21.4522414 C60.6701648,21.1292403 60.4726823,20.6388812 60.2400546,20.2656727 C59.9856703,19.8606662 59.5287828,19.2330734 59.5020055,18.7025484 C56.1899894,17.0272941 52.5281949,16.0917625 48.7224724,15.9880005 L48.7224724,21.1091573 Z M48.7224724,14.557089 C53.0001446,14.6692189 57.1071116,15.7721086 60.7822947,17.7569753 C61.1253788,17.7034207 61.463442,17.6599076 61.6893754,17.554472 C62.146263,17.3419273 63.0416286,17.8255921 63.475086,18.0766292 C63.8683775,18.3042362 64.1746427,18.6422994 64.6081001,18.8849686 C65.051599,19.1343322 65.7645444,19.8489511 65.9218609,20.5702644 C66.0791775,21.2899041 66.536065,21.2413702 66.3084581,21.5342468 C66.192981,21.6781748 66.368707,21.7350765 66.5862725,21.8639422 L70.1459785,18.3059097 C64.3336329,12.741254 56.7774162,9.61333176 48.7224724,9.43927937 L48.7224724,14.557089 Z M71.1551477,19.3167525 L67.3628139,23.1090862 C67.7109187,23.7149224 68.3636151,24.4780752 69.2840845,25.4152804 C69.6623137,25.8002039 70.0639731,26.1784332 70.4003628,26.5181701 C70.7216903,26.8445183 72.790236,29.4168118 72.3902502,29.7900203 C72.3617993,29.8184711 72.3300013,29.8435748 72.2982033,29.8686785 C73.9081879,33.2476379 74.8018799,36.9730285 74.9022948,40.738585 L80.021778,40.738585 C79.8477256,32.6836412 76.7198034,25.1274245 71.1551477,19.3167525 L71.1551477,19.3167525 Z M80.021778,42.1694964 L74.9039684,42.1694964 C74.7215481,49.047913 71.9467513,55.2920424 67.5218041,59.9563117 L71.1551477,63.5913289 C76.7198034,57.7789833 79.8477256,50.2244402 80.021778,42.1694964 L80.021778,42.1694964 Z M55.6209719,52.5155721 C55.6310134,52.7666092 55.3766292,52.5657795 55.2996445,52.6511321 C55.2226597,52.7348112 57.312962,53.7138559 57.6426574,53.769084 C57.8669172,53.8075764 58.2936803,53.9665665 59.0518123,53.8159443 C59.5589073,53.7155294 59.699488,53.9498307 59.9354629,53.9397892 C60.2735262,53.9280742 60.4927653,53.4728602 60.6885742,53.1916987 C61.2057106,52.451976 61.1086429,52.3532348 61.2458766,52.2377577 C61.4216025,52.0904826 61.9303711,53.2218231 61.8651014,53.9397892 C61.8533863,54.0535927 61.8416713,54.1590283 61.8249355,54.2611167 L61.8801636,54.3163449 C64.864158,51.1013964 66.7452626,46.848828 66.919315,42.1694964 L63.0265664,42.1694964 C63.1621264,42.3904091 63.3947541,42.6765914 63.6390969,43.1803392 C63.8349058,43.5853457 63.9520565,44.2280006 64.2817519,44.2597987 C64.8156241,44.3100061 65.362885,44.7501578 65.3796208,45.1216927 C65.4114188,45.8965606 63.0048098,46.0856752 62.6885031,45.9852603 C62.4224038,45.9015813 62.2466778,45.8831719 62.2282684,46.2998935 C62.2081854,46.7735168 61.35968,46.776864 61.0249639,47.0596991 C60.6500818,47.3760059 60.6082423,47.9567384 60.3572052,48.3600713 C60.206583,48.6027405 59.3179116,49.442878 59.0752424,49.6119096 C58.4961835,50.0169162 57.4066825,50.0369991 57.9054096,50.304772 C58.2602087,50.4938867 59.0685481,50.5608299 58.9664597,50.3733888 C58.849309,50.1574969 59.0283822,50.137414 59.1639422,50.3131399 C59.2693778,50.4470264 59.647607,50.1859478 59.6392391,49.941605 C59.6325448,49.7123245 59.5806638,49.3357688 59.7948821,49.3223802 C60.1413133,49.2989501 60.5061539,48.9157001 60.6768591,48.9508453 C60.8726681,48.9910112 61.1370938,49.4261422 60.9396113,50.7499445 C60.7421288,52.0737468 60.1095153,52.9958898 59.8568046,53.4126113 C59.584011,53.8561102 59.3128909,53.5180469 58.9463767,53.3289323 C58.4827949,53.0896103 57.7815646,53.1013253 57.292879,52.9406616 C57.033474,52.8569826 55.6142776,52.3197632 55.6209719,52.5155721 L55.6209719,52.5155721 Z M57.4870144,33.5070429 C57.3163092,33.5053693 57.1740548,33.4718977 57.0485363,33.4233639 L55.8519261,34.6199741 C56.0812066,34.680223 56.3339173,34.5965439 56.6217732,34.7237361 C56.9397535,34.8626432 56.7841105,33.8333911 57.2711225,33.9271117 C57.7681759,34.0225058 57.8953681,34.3421597 57.4836672,34.4978027 C57.1539718,34.6049118 57.5656727,34.8793791 57.1673605,35.0149391 C56.8041935,35.1387841 57.4619107,35.4601115 57.4568899,35.6023659 C57.4501956,35.7998484 56.9598365,35.873486 57.696212,36.1010929 C58.4292403,36.3270263 57.6978856,35.4835417 57.8100155,35.3647174 C57.9455755,35.2207895 58.3388669,35.5923244 58.4459761,35.4283135 C58.486142,35.3680646 58.5597796,35.262629 58.6484794,35.1421312 C58.3053953,34.5647459 57.9171246,34.017485 57.4870144,33.5070429 L57.4870144,33.5070429 Z M61.8801636,28.5917365 L58.2602087,32.2116915 C58.8827807,32.9028803 59.4350623,33.6576652 59.9103592,34.4626575 C60.3354487,34.5279271 60.9161812,34.7003059 61.2910632,35.1806236 C61.555489,35.5237076 62.3203153,36.2065285 62.2031647,36.5127938 C62.1312007,36.7002348 62.2901909,36.9328625 62.4659169,37.0567075 C62.7320162,37.242475 62.9211308,37.2391278 63.0667323,37.0516868 C63.3345052,36.7102763 63.3729976,36.2500416 63.7277967,35.9605122 C64.1595805,35.6023659 65.0482518,36.6349652 65.0482518,36.8240798 C65.0465783,37.0131944 64.8172977,37.0567075 64.7520281,37.3930972 C64.6616547,37.8499847 64.2683632,38.3972456 64.7152093,38.5495415 C65.3662322,38.7721277 65.4499112,38.5160698 65.7628708,38.0575087 C65.9067987,37.8466376 65.8750007,37.5069007 66.0306437,37.2977031 C66.1293849,37.1654902 66.2749865,37.1102621 66.4055258,37.0215623 C66.161183,36.0073724 65.8365083,35.0216334 65.4365225,34.0777339 C65.3411284,33.9840134 65.2289985,33.9070287 65.0884178,33.8601684 C64.8557901,33.7831837 64.9863293,33.5739861 64.6800641,33.478592 C64.3302857,33.3681357 64.1930521,33.2677209 64.1612541,32.6518432 C64.1361504,32.1547897 64.5796492,32.8141805 64.6917791,32.7288279 C64.7152093,32.7104185 64.7352922,32.6802941 64.7570488,32.6468224 C63.9754866,31.1690507 63.0064834,29.8067561 61.8801636,28.5917365 L61.8801636,28.5917365 Z M63.1855566,40.6733153 C63.1788622,40.6950719 63.1654736,40.7168284 63.1487378,40.738585 L66.919315,40.738585 C66.899232,40.1946712 66.8540454,39.6557783 66.7904493,39.1235796 C66.7586513,39.1788078 66.7268532,39.2357095 66.7017495,39.2892641 C66.4189144,39.8750173 66.3770749,39.5218918 66.3971578,39.2675076 C66.4239351,38.9428329 66.5477801,38.6382412 66.6682779,38.3051987 C66.639827,38.1311463 66.608029,37.9587675 66.5728838,37.7863887 C66.4607539,37.9470524 66.296743,38.0608559 66.0423587,38.188048 C65.8750007,38.2734006 65.7176841,38.6666921 65.6574352,38.8156408 C65.5837976,38.9963875 65.1687496,38.7738013 64.8290128,38.9378122 C64.2315445,39.225668 63.6190139,39.2691811 64.0558185,39.888406 C64.3353065,40.283371 63.3863862,40.1729147 63.1855566,40.6733153 L63.1855566,40.6733153 Z M62.3420719,61.8608465 C62.2065119,62.1855212 61.5220174,62.7712744 61.639168,62.9637362 C63.0215456,62.0851063 64.3152235,61.0776108 65.5001186,59.9563117 L61.8801636,56.3380303 C61.627453,56.5740052 61.3663744,56.8016122 61.1019486,57.0241984 C61.0400261,57.4392464 61.0969279,57.7639211 61.6056964,57.9212376 C62.1563044,58.0919429 63.0734266,58.6509188 62.8792913,59.1914854 C62.6633994,59.6768238 62.12618,60.4031578 61.866775,60.885149 C61.6475359,61.2951763 62.5044092,61.4709022 62.3420719,61.8608465 L62.3420719,61.8608465 Z M66.2297998,58.665981 L66.5092878,58.9471426 C70.6765036,54.5422783 73.2923102,48.6546215 73.4713833,42.1694964 L68.3519001,42.1694964 C68.1745005,47.243793 66.1327321,51.8511606 62.8910064,55.3271876 L64.7386394,57.1748207 C64.7520281,57.149717 64.7637431,57.1246133 64.7771318,57.097836 C64.9294276,56.7731613 64.864158,56.351419 64.8892617,56.0535216 C64.9059975,55.8593863 65.6105749,55.9062465 65.6607824,56.2259004 C65.7026219,56.4970205 65.8432026,56.6961766 66.0875454,57.3672824 C66.264945,57.8509473 66.348624,58.2961197 66.2297998,58.665981 L66.2297998,58.665981 Z M62.9797061,27.5741995 C62.9730118,27.6026503 62.956276,27.6210597 62.9378666,27.6327748 C63.7813513,28.5432027 64.5394833,29.5322888 65.2089156,30.5849711 C65.2859003,30.4845562 65.3478228,30.3958565 65.4566055,30.521375 C65.6373522,30.7272254 65.2674909,31.1021075 65.8047103,31.0050398 C66.1260378,30.9447909 66.0607681,31.3581653 65.7996895,31.5807516 C65.965374,31.8786489 66.1243642,32.1798934 66.2749865,32.4861587 C66.4641011,32.5715113 66.6063554,32.6735997 66.6364799,32.7974447 C66.7218325,33.1572646 66.8858434,33.5555767 66.9260093,33.9538889 C67.1820672,34.5982175 67.4080006,35.2576083 67.5987888,35.9337349 C67.8632145,35.7078015 68.1594383,35.8299729 68.1912363,36.2065285 C68.2230344,36.5830842 68.1025365,36.9914379 67.9385256,37.3295011 C68.1678062,38.435738 68.3100605,39.5737728 68.3519001,40.738585 L73.4713833,40.738585 C73.3793364,37.4232217 72.6362666,34.1446771 71.3057699,31.1305584 C71.2036815,31.2125638 71.0681215,31.2192581 70.8957427,31.4368236 C70.6363377,31.7648454 70.2179425,31.3548182 69.9869884,31.0686359 C69.5585517,30.5397844 68.547709,29.0502976 68.0924951,28.9749865 C67.7125922,28.913064 67.4297571,28.4193577 67.0297713,28.3373522 C66.6297856,28.2553468 66.1327321,28.031087 66.0674625,27.6093446 C65.9988456,27.1775608 65.8415291,26.9984877 65.3980302,26.9298709 C64.895956,26.8528862 64.5461776,26.6537301 64.1930521,26.278848 L62.9679911,27.5039091 C62.9780325,27.5306864 62.9830533,27.5541165 62.9797061,27.5741995 L62.9797061,27.5741995 Z M70.144305,64.6038452 L66.5092878,60.968828 C64.636551,62.7461707 62.5060828,64.257414 60.1831528,65.4406356 C59.4183265,66.0180209 58.4827949,66.4380896 57.7765438,66.7594171 C57.4803201,66.8933036 57.1589926,67.0690296 56.8226029,67.0690296 C56.7138201,67.0690296 56.6217732,67.0338844 56.5263791,66.975309 C54.0628683,67.8003843 51.4437146,68.2790284 48.7224724,68.3493188 L48.7224724,73.468802 C56.7774162,73.2930761 64.3336329,70.1668274 70.144305,64.6038452 L70.144305,64.6038452 Z M51.1809624,60.1119547 C51.0136044,59.931208 50.6738675,59.9178194 50.4328719,59.983089 C49.6011023,60.2090224 49.8789167,59.5479581 48.7224724,59.7153161 L48.7224724,60.3680126 C49.5575892,60.3362145 50.3776437,60.2475148 51.1809624,60.1119547 L51.1809624,60.1119547 Z M48.7224724,61.7972505 L48.7224724,66.9200809 C50.7960389,66.8615056 52.8093564,66.5535667 54.7339742,66.0263888 C54.3339884,65.6866519 54.1515681,65.1360439 53.6561882,64.9670122 C52.8060093,64.6741356 52.5767287,64.1486313 53.0369634,63.3904993 C53.2846533,62.9787984 53.1875857,62.8181347 52.894709,62.3813301 C52.5399099,61.8491315 52.0813488,61.6047887 51.7483063,61.4608608 C50.7608937,61.6449546 49.7533981,61.7621053 48.7224724,61.7972505 L48.7224724,61.7972505 Z M48.3994714,53.1548799 C48.9450587,53.062833 49.5241176,52.9055164 50.0144767,52.8569826 C50.5533697,52.803428 49.9927202,53.5699279 50.3123741,53.601726 C50.6939505,53.6385447 52.2654427,53.9063176 52.375899,53.5515185 C52.4662724,53.2586419 52.4880289,53.126429 52.8260922,53.0544651 C53.4603793,52.9155579 53.9641271,52.9356408 54.5030201,52.52394 C54.6971554,52.3749913 55.0988148,52.3214367 55.2142918,52.1021977 C55.3297689,51.881285 55.1322864,50.8403179 54.7440157,51.0093495 C54.5549011,51.0930285 54.3272941,51.362475 53.9239612,51.5666519 C53.5591206,51.7490722 53.2997156,51.8327512 53.0403106,51.48632 C52.8026621,51.1700132 53.1792178,50.9223233 53.3733531,50.7097786 C53.6729241,50.3800832 53.9457177,50.045367 54.2804338,50.045367 C54.4092995,50.045367 55.1004884,49.702283 55.041913,49.3893234 C54.9666019,48.9826433 54.1632832,49.4261422 53.9775157,49.2587841 C53.8469764,49.1433071 53.9758422,48.8504304 53.8737537,48.8052438 C53.7800332,48.7617307 53.4838094,49.1667372 53.71309,49.3859763 C53.8319142,49.4997797 53.5206282,49.8160865 53.1725234,49.5884795 C52.9047505,49.41108 52.8344601,50.3884511 52.8595639,50.5675242 C52.882994,50.7465973 53.2511817,50.6963899 53.0068389,51.019391 C52.759149,51.3423921 52.6671021,51.10307 52.4863554,51.2603866 C52.2671163,51.4528484 52.2169089,51.5281595 52.4863554,51.8059739 C52.7005737,52.0268865 52.3591632,52.4469553 52.2805049,52.0536638 C52.2269504,51.7925853 51.6780159,51.8712435 51.5742539,51.5750198 C51.4671447,51.2704281 51.0202987,51.3005525 50.476385,51.0227381 C50.0646841,50.811867 50.1182387,51.434439 50.8161219,51.5934292 C51.4068958,51.7289892 51.3767714,51.7992796 51.2077397,52.1691409 C51.0688325,52.4737326 51.0956098,51.9365132 50.3910324,51.7490722 C49.9391656,51.6302479 49.917409,51.3892523 49.5609364,51.3925995 C49.2011165,51.3976202 49.3199407,51.7390307 48.9383644,51.6486573 C48.6505085,51.5817141 48.6053218,51.9699848 48.3392225,52.0821147 C48.0145478,52.2210219 48.0346308,52.8067751 47.7049354,52.9691125 C47.2145763,53.2101081 46.2087543,53.0293614 46.253941,52.5423494 C46.3008012,52.057011 46.3225578,51.693844 46.6037193,51.5231388 C46.8514093,51.3741901 47.2614365,51.8093211 47.6045206,51.6553516 C47.9643404,51.4963615 47.8739671,51.1131115 47.6564016,50.8670951 C47.5911319,50.7834161 47.3283798,50.6528768 47.3334005,50.5691978 C47.3384212,50.4687829 47.8522105,50.4202491 48.1116155,50.2461967 C48.3710205,50.0721443 48.6505085,49.6068889 48.7843949,49.5031269 C48.9266493,49.3926706 49.2044637,49.3642197 49.2295674,49.2621313 C49.2647126,49.131592 49.0320849,48.89227 49.055515,48.7332798 C49.0772715,48.5726161 49.1341733,48.4504447 49.2580183,48.4588126 C49.3818632,48.4688541 49.5291383,48.8270003 49.45048,48.9123529 C49.3601067,49.0094206 49.5140761,49.1751051 49.6831077,49.1048147 C49.853813,49.0361979 50.456302,48.800223 50.6303544,48.7550363 C50.8696764,48.6914403 50.5717791,48.1525473 50.6487638,48.0554796 C50.7207278,47.9651063 50.7926917,48.0856041 50.8830651,47.9935571 C50.975112,47.9015102 50.6956241,47.8111369 50.7408107,47.6153279 C50.7726088,47.4680528 51.4035487,47.2973476 51.2294963,47.1852177 C51.0571175,47.0730878 50.8228162,47.399436 50.683909,47.4596849 C50.3709494,47.5985921 50.21698,47.2555081 50.2270215,46.9961031 C50.2337158,46.8689109 50.404421,46.4220649 50.2537988,46.3350387 C50.0462748,46.2162145 50.0111296,46.7467395 49.9793315,46.8505015 C49.9291241,47.0094917 49.7952377,47.2069742 50.0245182,47.6370845 C50.1483632,47.8680386 50.0847671,48.6512743 49.8437715,48.736627 C49.5877137,48.8303475 49.4739102,48.3399883 49.3534124,48.1374851 C49.3333294,48.1023399 49.3115728,48.0772362 49.2898163,48.0655211 C49.2881427,48.0638475 49.2864691,48.062174 49.283122,48.062174 C49.2730805,48.0571532 49.263039,48.053806 49.2513239,48.0554796 L49.2513239,48.0554796 C49.2396089,48.0571532 49.2278938,48.0638475 49.2178523,48.0722154 C49.2145052,48.073889 49.211158,48.0789098 49.2078108,48.0805833 C49.1960958,48.0922984 49.1843807,48.105687 49.1726656,48.12577 C49.1525827,48.1558945 49.1191111,48.2111226 49.0923338,48.2579829 C49.0739244,48.2914545 49.035432,48.3701128 48.9868982,48.50902 C48.9567737,48.5960462 48.9015456,48.6479272 48.8044779,48.6696837 C48.5433993,48.6981346 48.2773,48.716544 48.0078535,48.716544 C47.9024179,48.716544 47.7986559,48.7148704 47.6965675,48.7098497 C47.7400806,48.8705134 47.7869409,49.0445658 47.8455162,49.1566957 C47.9877705,49.4261422 48.2588906,49.6420341 48.2137039,49.8395166 C48.1668437,50.0386727 47.3384212,50.2194194 47.2698044,50.0738179 C47.1861254,49.8930712 47.479002,49.5299042 47.4555719,49.3658933 C47.4137324,49.0663223 47.2631101,48.8872492 47.2815195,48.6797252 C45.81881,48.5324501 44.481619,47.9533912 43.4055067,47.0663935 L39.7788574,50.6930428 C41.5679151,52.2862915 43.8172075,53.3724454 46.3024748,53.7155294 C46.6539267,53.5013111 46.7978547,53.1180611 47.0739955,53.3255851 C47.5158208,53.6586277 48.0480194,53.2151288 48.3994714,53.1548799 L48.3994714,53.1548799 Z M47.291561,59.9981513 C46.5719213,60.0517058 45.4824203,60.03497 45.2246889,59.8558969 C44.6874695,59.484362 44.0464881,59.1195214 43.9745241,58.8316655 C43.8439848,58.3195498 43.1444281,57.9346263 43.1444281,57.4559822 C43.1444281,56.92211 43.87913,56.7480576 43.6833211,56.207491 C43.5260045,55.7773808 43.9443996,55.2384878 44.7108996,54.8636058 C42.4649543,54.3113242 40.4315538,53.2084345 38.7663411,51.7055591 L35.1380182,55.3338819 C38.4717909,58.4316797 42.7394216,60.1956338 47.291561,60.3646654 L47.291561,59.9981513 Z M47.291561,61.798924 C42.7494631,61.6416075 38.4717909,60.0048456 35.0058053,57.1212661 C35.0844636,57.2149866 35.1530804,57.3070335 35.2049614,57.3957333 C35.4409363,57.8024134 36.2609908,58.6291623 35.7388337,58.9588577 C35.3053763,59.2333249 34.5874102,59.049231 34.1857508,59.0425367 C33.7422519,59.0375159 33.0962498,59.7002539 32.716347,59.7655235 C32.2326822,59.847529 31.9565413,59.8107102 31.503001,59.6282899 C31.3925447,59.5814297 31.2519639,59.4944035 31.0913001,59.3806 L30.5155884,59.9563117 C34.9204527,64.1235276 40.8081095,66.7393342 47.291561,66.9200809 L47.291561,61.798924 Z M47.291561,68.3493188 C40.4131444,68.1702456 34.169015,65.3937753 29.5047457,60.968828 L25.8697285,64.6038452 C31.6820741,70.1668274 39.2382908,73.2930761 47.291561,73.468802 L47.291561,68.3493188 Z M22.5426501,42.1694964 C22.6146141,44.8237954 23.0982789,47.379353 23.9267013,49.7725734 C23.9568258,49.7708998 23.9852766,49.7692262 24.0154011,49.7692262 C24.5358847,49.7441225 25.2304207,49.7608583 25.5567689,49.5081476 C26.0621902,49.1198769 25.5952612,47.7291314 25.911568,47.1483989 C26.3015123,46.4304328 27.2755362,44.7300748 27.5684128,44.7183598 C27.8278178,44.7083183 27.8161028,44.9007801 27.9483157,44.9325781 C27.7926727,44.0254974 27.695605,43.1033544 27.6638069,42.1694964 L22.5426501,42.1694964 Z M29.5047457,23.9609388 C25.3375298,28.3674767 22.7217232,34.2534599 22.5426501,40.738585 L27.6638069,40.738585 C27.8395329,35.6642884 29.8813013,31.0569208 33.1230271,27.5808938 L29.5047457,23.9609388 Z M47.291561,21.1091573 L47.291561,15.9880005 C40.8081095,16.1670736 34.9204527,18.7845538 30.5155884,22.9517697 L34.1355434,26.5700511 C37.6098968,23.3266517 42.2172644,21.2865569 47.291561,21.1091573 L47.291561,21.1091573 Z M47.291561,27.6628992 L47.291561,22.5417424 C42.6122294,22.7157948 38.3613346,24.5968995 35.1447125,27.5808938 L38.7663411,31.2008488 C41.0491051,29.140671 44.0213844,27.8302573 47.291561,27.6628992 L47.291561,27.6628992 Z M42.3980111,43.4196612 C42.3980111,43.3895367 42.4013583,43.3560651 42.4047054,43.3242671 C42.4047054,43.3142256 42.4047054,43.3058577 42.406379,43.2991634 C42.4080526,43.2740597 42.4113998,43.248956 42.4147469,43.2238522 C42.4164205,43.2138108 42.4180941,43.2037693 42.4180941,43.1937278 C42.4214412,43.176992 42.4231148,43.1619298 42.4247884,43.1468675 C42.4281356,43.1368261 42.4281356,43.1301317 42.4298091,43.1200902 C42.4314827,43.1117223 42.4331563,43.1016809 42.4348299,43.093313 C42.4398506,43.0598413 42.446545,43.0263697 42.4549129,42.9945717 L42.4549129,42.9928981 C42.4616072,42.9627737 42.4683015,42.9326492 42.478343,42.9058719 C42.4800166,42.8941569 42.4833637,42.8874625 42.4850373,42.8790946 C42.4917316,42.8590117 42.498426,42.8389287 42.5051203,42.8205193 C42.5084674,42.8104778 42.5118146,42.8021099 42.5151618,42.793742 C42.5235297,42.7753326 42.530224,42.7585968 42.5385919,42.7435346 C42.5436126,42.7368403 42.5452862,42.7284724 42.550307,42.7217781 C42.562022,42.7000215 42.5737371,42.6799385 42.5871257,42.6632027 C42.633986,42.6046274 42.6975821,42.5929123 42.7712196,42.6029538 C42.8984117,42.6213632 43.0574019,42.7033687 43.2130449,42.7117366 C43.3251748,42.7184309 43.4339575,42.6849593 43.5293516,42.5627879 C43.5728647,42.5058861 43.6130307,42.4422901 43.6414815,42.3803676 C43.671606,42.3184451 43.691689,42.2565226 43.691689,42.2063152 C43.691689,42.1812115 43.6883418,42.1577814 43.6799739,42.139372 C43.6531966,42.0858174 43.5795591,42.067408 43.4339575,42.1176154 C43.4038331,42.1276569 43.3753822,42.1376984 43.3452578,42.1460663 C43.2850089,42.1611285 43.22476,42.1728436 43.1678582,42.1761908 C43.1394074,42.1761908 43.1126301,42.1761908 43.0858528,42.17117 C43.0055209,42.1594549 42.9352305,42.1243098 42.8816759,42.0506722 C42.8649401,42.0272421 42.8482043,41.9987912 42.8348157,41.9653196 C42.8197534,41.9234801 42.7996705,41.8866613 42.7745668,41.8531897 C42.6841934,41.7209768 42.5519805,41.6557072 42.4130733,41.5737017 C42.3444565,41.5318622 42.2741661,41.4883491 42.2055493,41.4297738 C42.1720777,41.3996493 42.1386061,41.3678513 42.1068081,41.3310325 C42.0817044,41.3009081 42.0566007,41.2741308 42.031497,41.2473535 C42.0214555,41.237312 42.011414,41.2289441 42.0013725,41.2189026 C41.9846367,41.2021668 41.9679009,41.1871046 41.9511651,41.1703688 C41.9377764,41.1603273 41.9243878,41.1486122 41.9126727,41.1385707 C41.8976105,41.1268557 41.8825483,41.1151406 41.8691596,41.1034255 C41.8540974,41.0917105 41.8390352,41.081669 41.8222994,41.0699539 C41.8105843,41.0632596 41.7971957,41.0532181 41.783807,41.0448502 C41.7670712,41.0348087 41.7503354,41.0247673 41.731926,41.0163994 C41.7218845,41.009705 41.7101695,41.0046843 41.6984544,40.9996635 C41.680045,40.9896221 41.659962,40.9812542 41.6415527,40.9728863 C41.6315112,40.9695391 41.6231433,40.9678655 41.6147754,40.9645184 C41.5913452,40.957824 41.5695887,40.9494561 41.5461586,40.9444354 C41.5428114,40.9444354 41.5377907,40.9444354 41.5344435,40.9427618 C41.3620647,40.9109638 41.1846651,40.9544769 41.0106127,41.1235085 C41.0089392,41.1235085 41.005592,41.1268557 41.0039184,41.1285293 C40.9771411,41.1553065 40.9503638,41.185431 40.921913,41.2189026 C40.9185658,41.2222498 40.9168922,41.2255969 40.9135451,41.2289441 C40.8867678,41.2640893 40.8599905,41.2992345 40.8332132,41.341074 C40.8315396,41.3444212 40.829866,41.3477683 40.8265189,41.3511155 C40.7997416,41.392955 40.7729643,41.4398153 40.746187,41.4883491 C40.6892853,41.5904375 40.6374043,41.7059146 40.5855233,41.8414746 C40.1688017,42.9309756 39.688484,42.5979331 39.7671423,42.9862038 C39.7771838,43.0313905 39.8926609,43.0631885 40.0633661,43.0765772 C40.1319829,43.0815979 40.2089676,43.0849451 40.2892995,43.0849451 C40.3713049,43.0849451 40.4583311,43.0832715 40.5453573,43.0765772 C40.6340571,43.07323 40.7227569,43.0648621 40.8097831,43.053147 C40.8532962,43.0481263 40.8951357,43.041432 40.9369752,43.0347376 C40.9620789,43.0313905 40.985509,43.0263697 41.0106127,43.0230226 C41.0340429,43.0180018 41.057473,43.0129811 41.0809031,43.0079603 C41.1009861,43.0029396 41.1227426,42.9979189 41.1428256,42.9945717 C41.1696029,42.9878774 41.1947066,42.9795095 41.2181367,42.9728151 C41.2348726,42.969468 41.2499348,42.9644472 41.2633234,42.9594265 C41.3018158,42.9477114 41.3386346,42.9343228 41.3704326,42.9192606 C41.4256607,42.8941569 41.4825625,42.8707267 41.5377907,42.8523173 C41.5411378,42.8523173 41.5411378,42.8523173 41.544485,42.8506438 C41.5980396,42.833908 41.6515941,42.8205193 41.7018016,42.8104778 C41.8105843,42.7903949 41.9109991,42.7920684 41.9879839,42.8205193 C42.0448856,42.8406023 42.1620362,42.8891361 42.2473889,43.0113075 C42.3160057,43.1100488 42.3812753,43.2824276 42.3980111,43.4196612 L42.3980111,43.4196612 Z M38.7680147,49.6822 L42.394664,46.0555507 C42.0984402,45.6957309 41.8390352,45.3057866 41.6147754,44.8940858 C41.6147754,44.8940858 41.6147754,44.8957593 41.6147754,44.8957593 C41.5578736,44.961029 41.5093398,45.0296458 41.4808889,45.0932419 C41.4055778,45.2555792 41.5026455,45.7944722 41.2783857,46.0254263 C40.9888562,46.3249972 40.2106412,45.3660355 39.9646248,45.2873772 C39.6315823,45.1819416 39.4709185,45.5501294 39.4893279,45.655565 C39.5345146,45.9317058 39.4776129,46.0421621 39.357115,46.0672658 C39.2366172,46.0906959 38.6291075,45.6773215 38.9002275,45.5735595 C39.2165343,45.4530617 38.8182221,45.180268 38.6809885,45.0748325 C38.4466872,44.8940858 38.080173,45.0631174 37.9077942,44.8221218 C37.7237003,44.5643904 37.3755955,44.3786229 37.2684864,44.3468249 C37.1965224,44.3267419 36.8400497,44.1761196 36.6057484,44.298291 C36.4233281,44.3970323 36.2258456,44.1962026 36.088612,44.0623162 C36.0116273,43.9886786 35.9363162,43.903326 35.8559843,43.819647 C36.2877681,46.0421621 37.3170202,48.053806 38.7680147,49.6822 L38.7680147,49.6822 Z M33.5497901,39.4984617 C33.1481308,39.4566222 32.7414507,39.6239802 32.5255588,39.972085 C32.3749365,40.2130806 32.333097,40.4842007 32.384978,40.738585 L34.2158752,40.738585 C34.2326111,40.3921538 34.2644091,40.0490697 34.3079222,39.7110064 C34.0719473,39.5871615 33.7907858,39.5235654 33.5497901,39.4984617 L33.5497901,39.4984617 Z M37.1028019,35.6006923 C37.1513357,35.5789358 37.2015432,35.5555056 37.2517506,35.5253812 C37.872649,35.1705821 38.6893564,35.2391989 39.0374611,35.3898212 C39.4859808,35.5856301 40.0583453,36.0843571 40.3194239,36.2818397 C40.4315538,36.3688658 40.4851084,36.2098757 41.0139599,36.1295438 C41.233199,36.0977458 41.2834064,36.3186584 41.5980396,36.3638451 C41.7235581,36.3805809 41.8273201,36.3872752 41.9227142,36.3805809 L38.7680147,33.2258814 C38.1253597,33.9471946 37.5647102,34.743819 37.1028019,35.6006923 L37.1028019,35.6006923 Z M37.7554984,32.2116915 L34.1355434,28.5917365 C31.1498755,31.8083585 29.2687708,36.0592534 29.0947184,40.738585 L31.6301931,40.738585 C32.0552826,40.0557641 31.9113547,39.5336069 32.053609,39.1369683 C32.1891691,38.7570655 32.4134289,38.4106343 32.6226265,38.0692238 C32.8100675,37.7696529 33.0226122,37.429916 33.4125565,37.4282424 C34.240979,37.4232217 34.4451558,36.9914379 34.9689865,36.7504422 C35.4928173,36.5111202 36.4216546,36.3688658 36.316219,36.0943986 C36.244255,35.9103047 34.3798862,36.6332916 34.3413938,36.4927108 C34.2694298,36.2450209 34.9288206,36.268451 35.2049614,36.0190875 C35.2601896,35.9672065 35.3137442,35.937082 35.3656252,35.9103047 C35.964767,34.5496837 36.7714329,33.3028661 37.7554984,32.2116915 L37.7554984,32.2116915 Z M28.9591584,58.2676688 C28.9424226,58.2777103 28.9256868,58.2827311 28.9072774,58.291099 C29.1030863,58.5120116 29.3022424,58.7312507 29.5047457,58.9471426 L29.9147729,58.5354418 C29.5298494,58.2944461 29.1767239,58.1404767 28.9591584,58.2676688 L28.9591584,58.2676688 Z M30.3080644,44.4371982 C30.010167,44.0957878 30.5055469,43.1234374 30.5791845,42.9309756 C30.6595163,42.730146 31.1097095,42.4690674 31.2452696,42.1694964 L29.0930448,42.1694964 C29.1348843,43.2941426 29.2771387,44.4003795 29.5097664,45.4815126 C30.0252293,45.6706272 31.0176626,45.2488849 30.3080644,44.4371982 L30.3080644,44.4371982 Z M33.3255303,53.0728745 C33.3272039,53.1749629 33.3221832,53.2753777 33.3021002,53.3690982 C33.5681995,53.6954465 33.8393196,54.016774 34.1255019,54.3247128 L37.7554984,50.6947163 C36.0467725,48.800223 34.8551831,46.43378 34.4016427,43.8162998 C34.29286,43.8447507 34.1957923,43.8296885 34.1355434,43.7259264 C34.0619058,43.5970607 34.169015,43.468195 34.3263316,43.3393293 C34.272777,42.9527322 34.2359582,42.5627879 34.2158752,42.1694964 L31.7992248,42.1694964 C31.8226549,42.5527464 31.9782979,43.1067016 31.7239136,43.300837 C31.5147161,43.4598271 31.2184923,43.2991634 31.0293777,43.3242671 C30.5657958,43.3861896 30.4603602,43.9468391 30.5825316,44.3267419 C30.6628635,44.5827997 30.7749934,44.7802823 30.7298067,45.0564231 C30.6896408,45.3158281 30.54906,45.5166578 30.9574137,45.7342232 C31.3339693,45.9300322 31.9414791,46.7015529 31.8912717,46.8337657 C31.8260021,47.0061446 31.4544671,46.6747756 31.431037,46.984388 C31.4159748,47.1735026 31.9816451,46.9308334 31.9481734,47.575162 C31.9297641,47.9483705 32.0234846,48.3583977 32.1305937,48.6161292 C32.3548535,49.151675 32.612585,49.5031269 32.5891548,50.1072895 C32.572419,50.6076901 32.4837193,51.1532774 32.7029583,51.6252272 C32.9288917,52.108892 33.3238568,52.5021835 33.3255303,53.0728745 L33.3255303,53.0728745 Z M45.9778002,33.9354796 C46.0129454,33.9907077 45.6414104,34.3270974 45.4522958,34.6551192 C46.0447434,34.432533 46.6606211,34.2902787 47.291561,34.2283562 L47.291561,29.0954843 C44.4163494,29.2611688 41.8005428,30.4109187 39.7788574,32.2150386 L43.4021595,35.8383408 C43.8188811,35.4969303 44.2707479,35.2007065 44.7577599,34.9546902 C44.884952,34.8927677 45.0121441,34.8341924 45.1410098,34.7806378 C45.3886998,34.3471804 45.9309399,33.8635156 45.9778002,33.9354796 L45.9778002,33.9354796 Z M24.8588857,63.5913289 L28.493903,59.9563117 C27.779284,59.2032004 27.1065046,58.406576 26.482259,57.57648 C26.2010974,57.4643501 25.9149151,57.3087071 25.7174326,57.0643643 C25.4078202,56.6777672 25.2454829,56.1087498 25.0965342,56.1087498 C24.9492591,56.1104234 25.0848191,56.4702432 24.7534502,56.518777 C24.303257,56.5840467 23.6689699,55.4644212 23.4196064,55.0560675 C23.1267298,54.5757499 22.6464121,54.5724027 22.4104372,54.1222095 C22.343494,53.9916702 22.1794831,53.5950316 22.0288608,53.8310065 C21.7794973,54.2309923 20.9259712,52.959071 20.7067321,53.0460972 C20.4824723,53.1331234 20.6799548,53.3975491 20.5544363,53.509679 C20.3100935,53.7272445 19.5904538,52.5356551 19.3210073,52.6561529 C19.0682967,52.7716299 19.0097213,52.9255994 18.9963327,53.2419061 C18.9812705,53.5699279 19.3879506,54.4150862 19.2456962,54.4803558 C19.0415194,54.5724027 18.0022258,51.9247981 18.2281592,51.8026267 C18.3570249,51.7356835 18.3369419,51.9247981 18.4808698,51.8377719 C18.6281449,51.7490722 18.3771078,51.5649783 18.308491,51.2771224 C18.2365271,50.9775515 17.9771221,50.9708571 17.9536919,50.6411618 C17.933609,50.3097928 18.4038851,50.4202491 18.3988644,50.2595854 C18.3938436,50.0989216 18.4356832,49.9165013 18.567896,49.8010243 C18.723539,49.6671378 19.086706,49.8077186 19.1653643,49.3424632 C19.2323076,48.9458245 19.4331372,49.3140123 19.4733032,49.6085625 C19.521837,49.9499729 20.3954461,50.0369991 20.4372856,49.8026978 C20.4640629,49.6537492 20.0841601,49.6587699 20.0841601,49.5282306 C20.0841601,49.2755199 20.5661513,49.5165155 20.8941732,49.5449664 C21.0364275,49.5566815 21.2941589,49.3257274 21.6221807,49.494759 C21.9769798,49.6788529 22.1945453,49.7692262 22.4305202,49.8077186 C21.6405901,47.3927417 21.1803554,44.8288161 21.1117386,42.1694964 L15.9922554,42.1694964 C16.1679814,50.2244402 19.29423,57.7789833 24.8588857,63.5913289 L24.8588857,63.5913289 Z M14.5546496,41.4532039 C14.5546496,32.5112624 18.0323502,24.1082139 24.3467701,17.793794 C30.6611899,11.4777006 39.0642384,8 48.0078535,8 C56.949795,8 65.3528435,11.4777006 71.6672634,17.793794 C77.9816832,24.1082139 81.4610574,32.5112624 81.4610574,41.4532039 C81.4610574,50.396819 77.9816832,58.7998675 71.6672634,65.1142873 C65.3528435,71.4287072 56.949795,74.9064078 48.0078535,74.9064078 C39.0642384,74.9064078 30.6611899,71.4287072 24.3467701,65.1142873 C18.0323502,58.7998675 14.5546496,50.396819 14.5546496,41.4532039 L14.5546496,41.4532039 Z M33.3824321,45.3610148 C33.4192508,45.2823565 33.6602465,44.1777932 33.6234277,43.7543773 C33.5849353,43.3343086 33.3606755,42.9359964 33.3037738,42.9661208 C33.2284627,43.0046132 33.338919,43.2573239 33.3523076,43.6656775 C33.3723906,44.2765345 33.0828611,44.785303 33.0828611,44.9861327 C33.0828611,45.1769209 33.2636078,45.6070311 33.3824321,45.3610148 L33.3824321,45.3610148 Z M33.5514637,46.9726729 C33.5732203,46.745066 33.5548109,46.0806544 33.3958207,45.9534623 C33.2368306,45.8262702 33.2585871,46.0655922 33.14311,46.0522036 C33.0560838,46.0421621 33.0627782,45.7342232 32.9523218,45.7358968 C32.8401919,45.7358968 32.9891406,46.2630747 33.1096384,46.56934 C33.2284627,46.8756053 33.5246864,47.3776795 33.5514637,46.9726729 L33.5514637,46.9726729 Z M40.6022591,47.0245539 C40.7512077,47.0245539 40.8583169,46.497376 40.7679435,46.237971 C40.674223,45.978566 40.1972525,46.1727014 40.1537394,46.2931992 C40.1135735,46.4153706 40.4533104,47.0245539 40.6022591,47.0245539 L40.6022591,47.0245539 Z M45.9828209,41.2255969 C45.5008297,41.1000784 45.5978973,41.3762192 45.3016736,41.4080172 C44.8113144,41.4615718 45.248119,41.0448502 45.0054498,40.854062 C44.9000142,40.770383 44.6121583,41.1904517 44.5904018,41.4532039 C44.5770131,41.580396 44.573666,42.0071591 44.78119,42.0222213 C44.988714,42.0339364 46.0815622,42.1594549 46.4464027,42.2414604 C46.8631243,42.3385281 46.4296669,41.3394004 45.9828209,41.2255969 L45.9828209,41.2255969 Z M44.9753253,40.5812684 C45.2146474,40.5812684 45.2062795,40.4005217 45.3451867,40.4088896 C45.487441,40.4139103 45.371964,40.5896363 45.6146332,40.5896363 C45.8573023,40.5896363 46.110013,39.9670643 45.3334716,39.9670643 C44.7008581,39.9670643 44.7845371,40.5729005 44.9753253,40.5812684 L44.9753253,40.5812684 Z M46.0966244,46.3735311 C46.058132,46.2296031 45.8070949,46.2530333 45.8690174,46.3852461 C45.9309399,46.517459 45.7937063,46.653019 45.922572,46.8203771 C46.0932772,47.0011238 46.4581178,46.9793673 46.6438853,46.828745 C46.7493208,46.7132679 46.6823776,46.4957024 46.6020457,46.4538629 C46.461465,46.3852461 46.1351167,46.517459 46.0966244,46.3735311 L46.0966244,46.3735311 Z M54.6168235,12.4935641 C53.8436293,12.1421121 50.9315989,12.1571744 51.0069101,12.9136328 C51.0705061,13.5613085 52.6888586,12.9537988 53.1072538,12.9186536 C53.5273225,12.8801612 55.2996445,12.845016 54.6168235,12.4935641 L54.6168235,12.4935641 Z M51.1257343,14.2508238 C50.5516961,13.8792889 51.0320138,13.3671732 50.5734527,13.0240892 C50.2504516,12.7830935 49.3483916,13.0224156 49.1258054,13.3069243 C48.7375347,13.8089985 49.626206,13.643314 49.9492071,13.7855684 C50.3073533,13.9445585 51.0805476,14.60897 51.2177812,14.47341 C51.3533413,14.3395236 51.1893303,14.3093991 51.1257343,14.2508238 L51.1257343,14.2508238 Z M64.3018349,18.0347897 C64.5880171,18.1435724 64.5880171,17.6097002 64.1010052,17.2147351 C63.6190139,16.8214437 62.9746854,17.0122319 63.1487378,17.2063672 C63.3060544,17.3820932 64.0491242,17.937722 64.3018349,18.0347897 L64.3018349,18.0347897 Z M67.3628139,32.9664764 C67.354446,33.1271401 67.8197014,34.2467656 67.8665617,34.5513572 C67.9134219,34.8559489 68.008816,35.769724 68.2548324,35.6760035 C68.4104754,35.6157545 68.3954132,35.0567786 68.3619415,34.8392131 C68.2632003,34.2032525 68.1343346,33.654318 67.9000333,32.9396991 C67.7761883,32.5597963 67.2372953,31.319673 67.0582222,31.3631861 C66.899232,31.4016784 67.3259951,32.2669196 67.3879176,32.5480812 C67.4297571,32.7305015 67.3711818,32.8024655 67.3628139,32.9664764 L67.3628139,32.9664764 Z M61.5722248,32.9179425 C61.3061255,32.9246368 61.2391822,33.2124927 61.4935665,33.343032 C61.6090436,33.4032809 61.9722106,33.3480527 62.1378951,33.2442907 C62.313621,33.1338344 62.5177979,32.9949272 62.4793055,32.7271543 C62.457549,32.564817 62.0776462,32.1045823 62.2768023,31.9271828 C62.4910206,31.734721 62.7069125,32.0342919 62.9177836,31.9522865 C63.1738415,31.8535452 63.1504114,31.7062701 63.1587793,31.4887046 C63.1688207,31.1874601 63.0466494,30.7908215 62.6985446,30.7908215 C62.437466,30.7908215 61.9855992,31.487031 61.9655162,31.5288706 C61.9303711,31.6058553 61.8584071,31.8602395 61.9688634,32.1196445 C62.1245064,32.481138 62.0642575,32.9045539 61.5722248,32.9179425 L61.5722248,32.9179425 Z M65.8448762,44.0455804 C65.5369374,44.058969 65.2038948,44.5041415 65.2976154,44.5091622 C65.518528,44.5208773 65.6875596,44.6798674 65.8649592,44.6397015 C66.1913074,44.5677375 66.1511415,44.0338653 65.8448762,44.0455804 L65.8448762,44.0455804 Z M54.0545004,33.7112198 C54.2017755,33.7882045 54.8511248,33.4350789 54.730627,33.3396848 C54.6101292,33.2442907 53.8469764,32.8911652 53.8319142,33.1070571 C53.8101577,33.4568355 53.9055518,33.634235 54.0545004,33.7112198 L54.0545004,33.7112198 Z M53.8436293,33.9220909 C53.6059808,33.7982459 52.6269361,34.991509 52.7842527,35.1839707 C52.8545431,35.2609554 53.9306555,33.9789927 53.8436293,33.9220909 L53.8436293,33.9220909 Z M47.1509802,49.3993649 C47.3969966,49.0295036 46.7827925,48.7952023 46.6238023,49.4378573 C46.47318,50.0353256 46.9032903,49.7675526 47.1509802,49.3993649 L47.1509802,49.3993649 Z M11.7798529,22.0681191 C11.7798529,22.0681191 11.8116509,22.0798341 11.8300603,22.0714662 C11.8384282,22.0681191 11.8467961,22.0580776 11.855164,22.0513833 C12.4509587,21.589475 14.8307904,19.7401684 15.6508449,18.9150931 C16.887621,17.8406543 17.7880074,16.4867276 18.7001089,15.1495366 C19.6473556,13.7571175 20.663219,12.4266209 21.928446,11.3019747 C22.032208,11.2099277 22.1091927,11.1463316 22.2146283,11.0526111 C22.2263434,11.0559583 22.2531207,10.9471756 22.2296905,10.9070096 C20.0540357,11.5061515 17.8114376,12.3998436 16.1244683,13.8592059 C12.9848309,16.3427996 11.9103921,21.3568473 11.7848736,22.0413418 C11.7832,22.0513833 11.7798529,22.0681191 11.7798529,22.0681191 L11.7798529,22.0681191 Z M7.2578379,30.3992036 C7.2578379,30.9799361 7.24612283,31.4719688 7.21767196,31.7815812 C7.21767196,31.7832548 7.21934554,31.7815812 7.21934554,31.7832548 C7.21767196,31.7916227 7.21767196,31.8016642 7.21767196,31.8100321 C7.2143248,31.8418301 7.3097189,31.7815812 7.3097189,31.7815812 C7.3097189,31.7815812 7.32310755,31.766519 7.33147545,31.7581511 C7.82852891,31.1255376 9.36822312,29.2176557 11.4802819,27.4503545 C12.665177,26.4696362 13.9119946,25.5290839 15.0215786,24.4713809 C16.5629464,22.9969563 17.4633328,20.5100155 17.7311057,19.1661302 C17.7495151,19.047306 17.7712716,18.955259 17.7662509,18.9083988 C17.7378,18.8966837 17.6424059,18.9301553 17.6290173,18.9468911 C17.4717007,19.1527415 17.311037,19.3569184 17.1570675,19.566116 C16.2583547,20.7828091 15.3144552,21.5191846 14.0760055,22.3325448 C11.990724,23.6479792 10.5263409,24.6454333 9.34646657,26.2453764 C9.33809867,26.2570915 9.32805718,26.2688065 9.3180157,26.2821952 C9.26446112,26.3809364 9.15902553,26.3340762 9.19082357,26.2319878 C9.54896983,25.0705228 9.70293925,24.3458624 9.95230277,23.3249781 C10.3606565,21.641356 10.5447503,19.4154937 11.1773638,17.9343748 C11.575676,16.9954961 12.146367,16.1955245 12.8793954,15.479232 C12.8877633,15.4742112 12.8944576,15.4691905 12.8978047,15.459149 C12.9279292,15.3704492 12.9111934,15.3018324 12.9078462,15.3050622 C12.7973899,15.3302833 12.6266847,15.395553 12.4994925,15.459149 C10.3154698,16.5453029 8.85443385,18.3025626 7.872042,20.5133626 C7.26787938,21.8756573 7.10721564,23.2982009 7.10386848,24.7358066 C7.10386848,25.2177979 7.1189307,25.7014627 7.14068725,26.1834539 C7.197589,27.3750434 7.25616432,29.1055258 7.2578379,30.3992036 L7.2578379,30.3992036 Z M3.95753683,39.0281855 C4.51316561,40.6197607 5.25958259,42.9761623 5.42191991,43.5836721 C5.42526707,43.6037551 5.52902907,43.5585684 5.54074414,43.5100345 C5.98591659,41.8113502 7.83522323,38.499334 8.99334105,36.9462512 C9.0753465,36.8341213 9.15902553,36.7236649 9.24103099,36.6132086 C10.3941281,35.0919238 11.6225363,33.6108049 12.3873626,31.8418301 C12.9178877,30.6184427 13.7379422,27.9892475 13.7898864,27.7415575 C13.7914968,27.731516 13.7596988,27.7298425 13.7212064,27.7348632 C13.7044706,27.7281689 13.6375274,27.731516 13.58732,27.7633141 C13.5739313,27.7700084 13.5622163,27.7800499 13.5505012,27.7917649 C13.5438069,27.7967857 13.5371126,27.8051536 13.5320918,27.8151951 C12.7086901,29.0820956 11.3012088,30.5347636 10.3573093,31.3531446 C8.8326773,32.5949414 7.64610861,33.5405145 6.72731283,35.3647174 C6.62857157,35.5588528 6.51142092,35.8282993 6.39594386,36.1111344 C6.11645589,36.7688516 5.8386415,37.5520874 5.83529433,37.5671496 C5.82525285,37.617357 5.73822666,37.6909946 5.70642862,37.5956005 C5.68132491,37.513595 5.85872446,35.3647174 5.87546027,35.0735144 C5.96248647,33.3262962 5.62777033,31.6125496 5.39346904,29.8803936 C5.102266,27.7080859 4.90143632,25.9056395 5.49723104,23.3517554 C5.53739698,23.177703 5.58593082,23.0053242 5.63781182,22.834619 C5.67463059,22.7024061 5.70475504,22.6019913 5.74826814,22.471452 C5.75496246,22.4496955 5.72149085,22.347607 5.68467207,22.3342184 C3.39521373,25.1140359 2.10320945,30.2017211 2.66218539,34.121247 C2.85966791,35.5036246 3.84205976,38.6984901 3.95753683,39.0281855 L3.95753683,39.0281855 Z M7.69129529,55.4962193 C7.69296887,55.4928721 7.69798961,55.4995664 7.69966319,55.4995664 C7.78334223,55.4376439 7.77664791,55.4158874 7.7515442,55.2184049 C7.51054858,52.8452675 7.90049287,50.9189761 8.68038146,48.6713573 C9.84519361,45.3158281 10.9715134,41.8531897 11.3380276,38.3169137 C11.388235,37.8466376 11.4334217,37.11863 11.420033,36.8977173 C11.3899086,36.8843287 11.2911673,36.9462512 11.2861466,36.9579662 C10.7823988,38.2198461 9.60085083,40.09593 8.9197035,41.1670216 C7.612637,43.2238522 6.12147663,45.2689678 5.9424035,47.7391729 C5.89554324,48.3667656 5.90223756,49.1918409 5.98591659,49.8595996 C5.98591659,49.8746618 5.96081288,49.9399315 5.9072583,49.9231957 C5.8988904,49.9198485 5.87211311,49.9081334 5.86374521,49.8763354 C5.70642862,49.2755199 5.52568191,48.5542067 5.29472778,47.7776652 C4.09309686,43.7008227 1.21119096,41.1419179 1.22625318,35.1822972 C1.21788528,35.1555199 1.14926847,35.0517579 1.10910254,35.0517579 C1.04550647,35.1454784 0.859739018,35.5772622 0.704096017,36.0776628 C-1.86652388,44.3618871 3.35170063,50.3081192 4.38597348,51.5683254 C5.34158804,52.7331376 6.8946709,54.3464693 7.69129529,55.4962193 L7.69129529,55.4962193 Z M8.59837601,63.2432242 C10.3255113,64.3963212 12.944665,65.9410362 13.8651344,66.528463 C13.8684815,66.5318102 13.8801966,66.5334837 13.8801966,66.5334837 C13.8801966,66.5334837 13.9437927,66.4213538 13.9203625,66.3611049 C13.9153418,66.3493899 13.9119946,66.3360012 13.9053003,66.3242862 C12.7588975,64.0565844 12.5881923,61.5830321 12.3873626,59.0827026 C12.2149838,56.9187628 12.6116224,54.2142565 12.4994925,52.1122392 C12.4074456,50.3683681 11.8534904,48.4906106 11.4116651,46.9927559 C11.3514162,46.7935998 11.3263125,46.756781 11.3246389,46.7484131 C11.2878201,46.7517603 11.2309184,46.8304186 11.2175298,46.8638902 C11.212509,46.8756053 11.2158562,46.8772788 11.2141826,46.8906675 C10.984902,49.4696553 10.0610855,51.7691551 9.72804296,53.8761932 C9.3347515,56.3463982 9.61423948,59.5345694 10.2702831,61.3370158 C10.3071019,61.4407778 10.2050135,61.4658815 10.1681947,61.4089798 C8.8075736,59.3387605 5.86374521,56.3530926 4.33409248,54.774906 C2.384371,52.7214225 1.04550647,50.811867 0.305783818,48.4521182 C0.300763076,48.4353824 0.200348237,48.3634185 0.176918107,48.3751335 C0.163529462,48.3985637 0.155161559,48.5960462 0.153487978,48.7065025 C0.098259816,52.0084772 1.17939293,55.2485293 3.04208821,57.9379735 C4.53492216,60.0918718 6.44113054,61.8022712 8.59837601,63.2432242 L8.59837601,63.2432242 Z M22.810423,74.6570443 C22.9510038,74.6871687 23.0949317,74.7089253 23.3158444,74.7474176 C23.3208651,74.7474176 23.3275594,74.7373762 23.3275594,74.7306818 C23.3208651,74.6754537 23.3024557,74.6403085 23.3024557,74.6403085 C23.3024557,74.6403085 23.1869787,74.5181371 23.1635485,74.494707 C21.6238543,72.970075 20.6766077,71.0939911 19.9502737,69.0923886 C19.4147278,67.617964 18.919348,66.1284772 18.4038851,64.6473583 C17.6725304,62.5537089 16.1060589,59.2082212 14.2249542,57.0543229 C14.221607,57.0493021 14.2048712,57.0392606 14.2015241,57.0426078 C14.1797675,57.0727322 14.1446223,57.1363283 14.1613581,57.1932301 C14.7906245,59.0642932 14.8291168,61.1596162 15.0968897,63.0992962 C15.8667368,68.6572576 18.4273153,71.2797585 18.5126679,71.3768262 C18.5796111,71.4554845 18.5176886,71.5324692 18.4574397,71.4872825 C18.3453098,71.4036035 18.2499157,71.3333131 18.1377858,71.2395926 C16.3972619,69.7986396 14.6333079,68.9300513 12.5865187,67.9794574 C10.9464097,67.2179782 9.56068489,66.5569139 8.06785094,65.5159467 C4.99180968,63.4105822 3.73662418,61.7654524 3.66633379,61.6767527 C3.62114712,61.6416075 3.55085673,61.6382603 3.50734363,61.6549961 C3.71486763,62.4148017 4.02782722,63.0926019 4.36254335,63.7854643 C5.6478533,66.4498047 7.61933132,68.5317391 9.94728203,70.3207968 C12.2685384,72.1031602 14.7872773,73.125718 17.6675096,73.6060356 C19.3929713,73.8938915 21.0966764,74.3039188 22.810423,74.6570443 L22.810423,74.6570443 Z M24.7668388,79.826735 C26.8487732,79.6794599 28.8620907,79.2292667 30.8720611,78.6903737 C32.177454,78.3422689 34.7246438,77.7883137 35.6049472,77.587484 C35.6200094,77.5841369 35.641766,77.5774426 35.6568282,77.5740954 C35.6651961,77.5740954 35.6685454,77.5690746 35.6651961,77.5607067 C35.6585018,77.5422974 35.641766,77.5004578 35.6082944,77.4569447 C35.5965793,77.4435561 35.5446983,77.4234731 35.517921,77.4167788 C34.3832333,77.1239022 31.2452696,76.20678 29.0629204,74.1231721 C27.6671541,72.826147 26.3533933,71.4404223 24.957627,70.1433972 C23.8329808,69.0990829 21.3544078,66.9886977 21.1837026,66.9334695 C21.1602725,66.9535525 21.150231,67.0506202 21.1585989,67.0606617 C21.5217659,67.546 22.8271588,70.5132586 23.6254568,72.0311962 C24.7768803,74.2235869 26.306533,75.9691315 28.5591726,76.7942068 C28.5708877,76.797554 28.5876235,76.8109426 28.5959914,76.8193105 C28.6478724,76.8745387 28.5759084,76.9414819 28.4169182,76.9163782 C28.4035296,76.913031 28.390141,76.9113574 28.3767523,76.9096839 C25.8513191,76.4996566 23.3794404,76.3892003 20.8171884,76.2536402 C18.8775085,76.1532254 16.8792531,76.0243597 15.0215786,75.388399 C13.7881497,74.9633096 12.8291879,74.5850803 11.3413747,73.4420247 C11.3263125,73.4336568 11.2426335,73.4085531 11.1706695,73.4470455 C11.1656488,73.4487191 11.1706695,73.4604341 11.1740167,73.4671284 C12.8509445,75.9808466 15.7880785,78.0795168 18.1712574,78.9665145 C20.268254,79.7480767 22.5125257,79.9857251 24.7668388,79.826735 L24.7668388,79.826735 Z M74.0721988,11.3019747 C75.3357522,12.4266209 76.3516156,13.7571175 77.3005359,15.1495366 C78.2109638,16.4867276 79.1113502,17.8423279 80.3497998,18.9150931 C81.1681808,19.7401684 83.5496861,21.589475 84.1438072,22.0513833 C84.1538487,22.0597512 84.1622166,22.0681191 84.1705845,22.0714662 C84.1889939,22.0798341 84.2207919,22.0681191 84.2207919,22.0681191 C84.2207919,22.0681191 84.2174448,22.0513833 84.2157712,22.0413418 C84.0902526,21.3568473 83.0141403,16.3427996 79.8761765,13.8592059 C78.1875336,12.3998436 75.9466091,11.5061515 73.7709543,10.9070096 C73.7475241,10.9471756 73.7726278,11.0559583 73.7860165,11.0542847 C73.8914521,11.1463316 73.9667632,11.2099277 74.0721988,11.3019747 L74.0721988,11.3019747 Z M83.1195758,15.479232 C83.8542778,16.1955245 84.4249688,16.9954961 84.823281,17.9343748 C85.4558945,19.4154937 85.6399883,21.641356 86.048342,23.3249781 C86.2977055,24.3458624 86.4500014,25.0705228 86.8098212,26.2319878 C86.8416192,26.3340762 86.7361837,26.3809364 86.6809555,26.2821952 C86.6725876,26.2688065 86.6642197,26.2570915 86.6541782,26.2453764 C85.4743038,24.6454333 84.0099208,23.6479792 81.9246393,22.3325448 C80.684516,21.5191846 79.7406165,20.7828091 78.8435773,19.566116 C78.6879342,19.3569184 78.5289441,19.1527415 78.3716275,18.9468911 C78.3582389,18.9301553 78.2628448,18.8966837 78.2343939,18.9083988 C78.2293731,18.955259 78.2511297,19.047306 78.2695391,19.1661302 C78.537312,20.5100155 79.4376984,22.9969563 80.9790662,24.4713809 C82.0886502,25.5290839 83.3354678,26.4696362 84.5186893,27.4503545 C86.6307481,29.2176557 88.1721159,31.1255376 88.6691693,31.7581511 C88.6758637,31.766519 88.6909259,31.7815812 88.6909259,31.7815812 C88.6909259,31.7815812 88.78632,31.8418301 88.7829728,31.8100321 C88.7829728,31.8016642 88.7829728,31.7916227 88.7812992,31.7832548 C88.7812992,31.7815812 88.7829728,31.7815812 88.7829728,31.7815812 C88.7545219,31.4719688 88.7428069,30.9799361 88.7428069,30.3992036 C88.7444805,29.1055258 88.8030558,27.3750434 88.8599575,26.1834539 C88.8817141,25.7014627 88.8984499,25.2177979 88.8967763,24.7358066 C88.8934291,23.2982009 88.7327654,21.8756573 88.1269292,20.5133626 C87.1462109,18.3025626 85.685175,16.5453029 83.5011522,15.459149 C83.3722865,15.395553 83.2032549,15.3302833 83.0927986,15.3034761 C83.0894514,15.3018324 83.0727156,15.3704492 83.1045136,15.459149 C83.1061872,15.4691905 83.1128815,15.4742112 83.1195758,15.479232 L83.1195758,15.479232 Z M85.6433355,31.3531446 C84.699436,30.5347636 83.2919547,29.0820956 82.468553,27.8151951 C82.4618586,27.8051536 82.4568379,27.7984593 82.4501436,27.7917649 C82.4384285,27.7800499 82.4267135,27.7700084 82.4133248,27.7633141 C82.3614438,27.731516 82.2961742,27.7281689 82.2777648,27.7365368 C82.240946,27.7298425 82.209148,27.731516 82.2107583,27.7415575 C82.2627025,27.9892475 83.0827571,30.6184427 83.6116086,31.8418301 C84.3781085,33.6108049 85.6065167,35.0919238 86.7596138,36.6132086 C86.8416192,36.7236649 86.9252983,36.8341213 87.0089773,36.9462512 C88.163748,38.499334 90.0130546,41.8113502 90.4599006,43.5100345 C90.4716157,43.5585684 90.5737041,43.6037551 90.5787249,43.5836721 C90.7410622,42.9761623 91.4891528,40.6197607 92.043108,39.0298591 C92.158585,38.6984901 93.1393033,35.5036246 93.3384594,34.121247 C93.8974353,30.2017211 92.6054311,25.1140359 90.3159727,22.3342184 C90.2791539,22.347607 90.2456823,22.4496955 90.2523766,22.471452 C90.2958897,22.6019913 90.3243406,22.7024061 90.362833,22.834619 C90.4130404,23.0053242 90.4615742,23.1760295 90.5017402,23.3517554 C91.0992085,25.9056395 90.8983788,27.7080859 90.6055022,29.8803936 C90.3728744,31.6125496 90.0364847,33.3262962 90.1268581,35.0735144 C90.1402467,35.3647174 90.3193199,37.513595 90.2925426,37.5956005 C90.2624181,37.6909946 90.1753919,37.617357 90.1653504,37.5671496 C90.1620033,37.5520874 89.8841889,36.7688516 89.6047009,36.112808 C89.4875503,35.8282993 89.3720732,35.5588528 89.273332,35.3647174 C88.3545362,33.5405145 87.1662939,32.5949414 85.6433355,31.3531446 L85.6433355,31.3531446 Z M90.1368996,49.8763354 C90.1285317,49.9081334 90.1017544,49.9198485 90.0933865,49.9231957 C90.0398319,49.9399315 90.0130546,49.8746618 90.0147282,49.8595996 C90.0984072,49.1918409 90.103428,48.3667656 90.0582413,47.7391729 C89.8791682,45.2689678 88.3880078,43.2238522 87.0809413,41.1670216 C86.399794,40.09593 85.218246,38.2198461 84.7144982,36.9579662 C84.7094775,36.9462512 84.6107362,36.8843287 84.5806118,36.8977173 C84.5672231,37.11863 84.6124098,37.8466376 84.6626172,38.3169137 C85.0274578,41.8531897 86.1537776,45.3158281 87.3202633,48.6713573 C88.1001519,50.9189761 88.4900962,52.8435939 88.2491006,55.2184049 C88.2239969,55.4158874 88.2173026,55.4376439 88.299308,55.4978928 C88.3026552,55.4995664 88.3076759,55.4928721 88.3093495,55.4962193 C89.1059739,54.3464693 90.6590567,52.7331376 91.6129977,51.5683254 C92.6489442,50.3081192 97.8654951,44.3618871 95.2965488,36.0776628 C95.1409058,35.5772622 94.9551383,35.1454784 94.8915422,35.0517579 C94.8513763,35.0517579 94.7827595,35.1555199 94.7743916,35.1822972 C94.7894538,41.1419179 91.9075479,43.7008227 90.7042434,47.7776652 C90.4749629,48.5542067 90.2942162,49.2755199 90.1368996,49.8763354 L90.1368996,49.8763354 Z M95.6931874,48.4521182 C94.9551383,50.811867 93.6162738,52.7214225 91.6665523,54.774906 C90.1368996,56.3530926 87.1930712,59.3387605 85.8324501,61.4089798 C85.7939578,61.4658815 85.6918693,61.4407778 85.7303617,61.3370158 C86.3864053,59.5345694 86.6658933,56.3463982 86.2726018,53.8761932 C85.9378857,51.7691551 85.0157427,49.4696553 84.7864622,46.8906675 C84.7847886,46.8772788 84.7881358,46.8756053 84.783115,46.8638902 C84.7697264,46.8304186 84.7128246,46.7517603 84.6760059,46.7484131 C84.6743323,46.756781 84.6492286,46.7935998 84.5873061,46.9927559 C84.1454808,48.4906106 83.5915256,50.3683681 83.5011522,52.1122392 C83.3890223,54.2142565 83.785661,56.9187628 83.6116086,59.0827026 C83.4107789,61.5830321 83.2400737,64.0565844 82.0936709,66.3242862 C82.0886502,66.3360012 82.085303,66.3493899 82.0802823,66.3611049 C82.0568521,66.4213538 82.1204482,66.5334837 82.1204482,66.5334837 C82.1204482,66.5334837 82.1304897,66.5318102 82.1355104,66.528463 C83.0543062,65.9410362 85.6751335,64.3963212 87.4022688,63.2432242 C89.5595142,61.8022712 91.4657226,60.0918718 92.9585566,57.9379735 C94.8195783,55.2485293 95.902385,52.0084772 95.8471568,48.7065025 C95.8438096,48.5960462 95.8371153,48.3985637 95.8237267,48.3751335 C95.8002965,48.3634185 95.6998817,48.4353824 95.6931874,48.4521182 L95.6931874,48.4521182 Z M92.3326374,61.6767527 C92.2640206,61.7654524 91.0088351,63.4105822 87.9327938,65.5159467 C86.4399599,66.5569139 85.0542351,67.2179782 83.414126,67.9794574 C81.3673369,68.9300513 79.6033829,69.7986396 77.862859,71.2395926 C77.7507291,71.3333131 77.655335,71.4036035 77.5415315,71.4872825 C77.4812826,71.5324692 77.4210337,71.4554845 77.4879769,71.3768262 C77.5733295,71.2797585 80.1322344,68.6572576 80.903755,63.0992962 C81.171528,61.1596162 81.2083467,59.0642932 81.8376131,57.1949036 C81.8560224,57.1363283 81.8208773,57.0727322 81.7991207,57.0426078 C81.7957735,57.0392606 81.7790377,57.0493021 81.7756906,57.0543229 C79.8945859,59.2065476 78.3281144,62.5537089 77.5967597,64.6473583 C77.0796232,66.1284772 76.5859169,67.617964 76.0503711,69.0923886 C75.3240371,71.0939911 74.3751169,72.9717486 72.8354227,74.494707 C72.8136661,74.5181371 72.698189,74.6403085 72.698189,74.6403085 C72.698189,74.6403085 72.6781061,74.6754537 72.6714118,74.7306818 C72.6714118,74.7373762 72.6797797,74.7474176 72.6848004,74.7474176 C72.9040395,74.7089253 73.0479674,74.6871687 73.1902218,74.6570443 C74.9039684,74.3039188 76.6076735,73.8938915 78.3314616,73.6060356 C81.2133675,73.125718 83.7304328,72.1031602 86.0533628,70.3207968 C88.3813135,68.5334126 90.3527915,66.4498047 91.6381014,63.7854643 C91.9728176,63.0926019 92.2857771,62.4148017 92.4933012,61.6549961 C92.4497881,61.6382603 92.3794977,61.6416075 92.3326374,61.6767527 L92.3326374,61.6767527 Z M84.6592701,73.4420247 C83.1714568,74.5850803 82.2124951,74.9633096 80.9773926,75.388399 C79.1230652,76.0243597 77.1214627,76.1532254 75.1834563,76.2536402 C72.6212043,76.3892003 70.1493257,76.4996566 67.6238925,76.9096839 C67.6105038,76.9113574 67.5971152,76.913031 67.5837265,76.9163782 C67.4247364,76.9414819 67.3527724,76.8745387 67.4029798,76.8193105 C67.4130213,76.8109426 67.4297571,76.797554 67.4414722,76.7942068 C69.6924382,75.9691315 71.2220909,74.2235869 72.375188,72.0311962 C73.1718124,70.5132586 74.4788789,67.546 74.8420459,67.0606617 C74.8487402,67.0506202 74.8403723,66.9535525 74.8169422,66.9334695 C74.6462369,66.9886977 72.167664,69.0990829 71.0430178,70.1433972 C69.6472515,71.4404223 68.3334907,72.826147 66.9360508,74.1231721 C64.7553752,76.20678 61.6174115,77.1222286 60.4810502,77.4167788 C60.4559465,77.4234731 60.4040655,77.4435561 60.3923504,77.4569447 C60.3572052,77.5004578 60.3404694,77.5422974 60.3337751,77.5607067 C60.3321015,77.5690746 60.3354487,77.5740954 60.3438166,77.5740954 C60.3572052,77.5774426 60.3806354,77.5841369 60.3956976,77.587484 C61.276001,77.7883137 63.8231908,78.3422689 65.1285837,78.6903737 C67.1385541,79.2292667 69.1518716,79.6794599 71.233806,79.826735 C73.4881191,79.9857251 75.7323908,79.7480767 77.8277138,78.9665145 C80.2108927,78.0795168 83.1497003,75.9808466 84.8266281,73.4671284 C84.8299753,73.4604341 84.834996,73.4487191 84.8299753,73.4470455 C84.7580113,73.4085531 84.6726587,73.4336568 84.6592701,73.4420247 L84.6592701,73.4420247 Z M76.4486833,80.896153 C76.49387,80.8861115 76.5557925,80.9346454 76.577549,80.9597491 C74.8286572,82.752154 72.5860591,83.9805622 70.435508,84.5930927 C68.838912,85.0466331 67.230601,85.1219442 65.5854712,84.9378503 C63.0533437,84.6550152 60.8191135,83.6391517 58.7237905,82.2617948 C57.468605,81.4367196 56.2268081,80.5932349 54.9866849,79.7480767 C53.5607941,78.7773999 51.9876283,78.6000003 50.3307835,78.8694468 C49.4337442,78.9665145 50.1148916,79.3982983 50.2521252,79.4669151 C52.4763139,80.5564161 54.5699633,81.8601355 56.5263791,83.3697052 C57.8568757,84.3454028 60.2283395,86.6331875 60.2283395,86.6331875 L58.454344,88.1527988 C58.454344,88.1527988 57.1004173,86.6348611 56.5096433,86.0457607 C52.6168947,81.9906748 49.1709921,80.2083114 48.4061657,79.7681596 C48.2722792,79.6911749 48.1434135,79.6175374 48.0078535,79.6175374 C47.8706199,79.6175374 47.7434278,79.6911749 47.6078677,79.7681596 C46.8447149,80.2083114 43.3971388,81.9906748 39.5043901,86.0457607 C38.9152898,86.6348611 37.561363,88.1527988 37.561363,88.1527988 L35.7856939,86.6331875 C35.7856939,86.6331875 38.1588313,84.3454028 39.4876543,83.3697052 C41.4440701,81.8601355 43.5377195,80.5564161 45.7619083,79.4669151 C45.9008154,79.3982983 46.5802892,78.9665145 45.68325,78.8694468 C44.0280787,78.6000003 42.4549129,78.7773999 41.0290221,79.7480767 C39.7872253,80.5932349 38.5454284,81.4367196 37.2902429,82.2617948 C35.1949199,83.6391517 32.9623633,84.6550152 30.4285622,84.9378503 C28.7834324,85.1219442 27.176795,85.0466331 25.580199,84.5930927 C23.4279743,83.9805622 21.1803554,82.7454596 19.4314637,80.9530548 C19.4532202,80.927951 19.5201634,80.8861115 19.5653501,80.896153 C19.7142988,80.9614227 19.8046721,81.0082829 19.9502737,81.083594 C22.5493444,82.420785 25.2873224,82.576428 28.1006115,82.0341879 C30.0235557,81.6643265 31.8092663,80.8944794 33.598324,80.1296531 C34.8786132,79.5840658 36.1455138,78.9815767 37.4642953,78.5464458 C40.8850942,77.4167788 44.3510798,77.4301675 47.830454,78.3121445 C47.8873557,78.3272067 47.9476046,78.3355746 48.0078535,78.3439425 C48.0664288,78.3355746 48.1266777,78.3272067 48.1835795,78.3121445 C51.6646273,77.4301675 55.1306128,77.4167788 58.5497381,78.5464458 C59.8701933,78.9815767 61.1354202,79.5840658 62.417383,80.1296531 C64.2047672,80.8944794 65.9921513,81.6643265 67.9134219,82.0341879 C70.7283846,82.576428 73.4663626,82.420785 76.0654333,81.083594 C76.2093613,81.0082829 76.3014082,80.9614227 76.4486833,80.896153 L76.4486833,80.896153 Z"></path>
            </g>
        </g>
    </g>
</svg>